<svg xmlns="http://www.w3.org/2000/svg" xmlns:v="https://svgstorm.com"
viewBox = "0 0 500 500"
width="500"
height="500">
<g fill="None" fill-opacity="0.0" stroke="#FEFEFE" stroke-opacity="1.00" stroke-width="0.3"><path d="
M 0.00 500.00 
L 500.00 500.00
L 500.00 0.00
L 0.00 0.00
L 0.00 500.00
M 319.00 207.00 
C 317.14 207.18 297.20 209.80 305.00 202.00
C 307.60 199.40 317.19 201.00 321.00 201.00
C 326.00 201.00 331.00 201.00 336.00 201.00
C 302.93 134.99 197.04 134.92 164.00 201.00
C 174.33 201.00 184.67 201.00 195.00 201.00
C 196.56 202.07 196.55 205.93 195.00 207.00
C 190.93 209.81 182.14 205.73 177.00 207.00 C 171.86 208.27 164.63 206.43 159.00 207.00 C 153.37 207.57 146.88 206.76 141.00 207.00 C 135.12 207.24 129.05 206.92 123.00 207.00 C 116.95 207.08 110.12 207.00 104.00 207.00
C 101.47 207.24 88.73 210.36 87.00 207.00
C 86.71 206.43 86.71 202.57 87.00 202.00
C 88.88 198.36 99.77 202.72 103.00 201.00
C 108.88 196.45 108.54 183.07 113.92 176.92 C 119.29 170.77 122.10 161.24 128.25 155.25 C 134.40 149.26 138.27 141.87 145.25 136.25 C 152.23 130.63 158.11 125.62 165.70 120.70 C 173.29 115.78 180.38 111.80 189.08 108.08 C 197.77 104.35 206.36 101.52 216.07 99.07 C 225.79 96.62 238.32 96.24 249.00 96.00 C 259.68 95.76 272.27 96.82 282.02 98.98 C 291.78 101.14 300.67 103.73 309.23 107.77 C 317.79 111.81 325.77 114.47 333.23 119.77 C 340.69 125.07 346.86 129.44 353.70 135.30 C 360.53 141.17 365.38 147.34 370.92 154.08 C 376.46 160.83 381.32 167.85 385.30 175.70 C 389.29 183.54 394.43 192.12 396.00 201.00
C 401.67 201.00 407.33 201.00 413.00 201.00
C 414.15 210.92 401.50 206.31 394.00 207.00 C 386.50 207.69 376.95 206.68 369.00 207.00 C 361.05 207.32 352.13 206.83 344.00 207.00 C 335.87 207.17 327.18 206.87 319.00 207.00
M 231.00 210.00 
C 233.39 217.44 225.88 216.12 221.00 216.00
C 221.00 224.33 221.00 232.67 221.00 241.00
C 207.94 243.00 216.40 223.98 214.00 216.00
C 210.67 216.00 207.33 216.00 204.00 216.00
C 201.93 208.51 208.69 209.94 214.00 210.00 C 219.31 210.06 225.60 209.96 231.00 210.00
M 244.00 222.00 
C 246.91 224.04 253.74 220.47 257.00 222.00
C 257.00 218.00 257.00 214.00 257.00 210.00
C 265.94 207.36 264.02 215.93 264.00 222.00 C 263.98 228.07 264.01 234.87 264.00 241.00
C 254.16 244.24 258.42 233.68 256.00 229.00
C 253.92 227.54 246.64 229.24 244.00 229.00
C 244.00 231.55 245.25 239.71 243.00 241.00
C 242.40 241.34 237.60 241.34 237.00 241.00
C 234.57 239.61 235.86 228.93 236.00 226.00 C 236.14 223.07 234.39 211.50 237.00 210.00
C 237.60 209.66 242.40 209.66 243.00 210.00
C 245.98 211.71 242.84 219.20 244.00 222.00
M 294.00 210.00 
C 296.56 219.24 285.33 215.14 280.00 216.00
C 277.42 224.86 287.81 221.36 293.00 222.00
C 295.58 230.86 285.19 227.36 280.00 228.00
C 276.95 238.32 288.91 234.27 295.00 235.00
C 295.43 245.99 279.98 239.07 273.00 241.00
C 273.00 230.67 273.00 220.33 273.00 210.00
C 280.00 210.00 287.00 210.00 294.00 210.00
M 308.00 258.00 
C 308.92 259.38 307.30 262.47 308.00 264.00
C 303.33 264.00 298.67 264.00 294.00 264.00
C 294.00 266.00 294.00 268.00 294.00 270.00
C 296.94 272.03 303.71 268.48 307.00 270.00
C 309.90 279.70 298.11 273.94 294.00 277.00
C 293.14 278.50 294.65 281.37 294.00 283.00
C 297.16 285.18 304.46 281.36 308.00 283.00
C 309.72 294.09 293.71 287.01 287.00 289.00
C 283.97 286.88 286.44 277.94 286.00 274.00 C 285.56 270.06 285.62 262.23 286.00 258.00
C 287.92 256.00 306.44 255.66 308.00 258.00
M 178.00 277.00 
C 173.67 277.00 169.33 277.00 165.00 277.00
C 163.12 279.68 166.41 285.99 165.00 289.00
C 156.06 291.64 157.98 283.07 158.00 277.00 C 158.02 270.93 157.99 264.13 158.00 258.00
C 166.92 255.15 165.03 264.21 165.00 270.00
C 169.33 270.00 173.67 270.00 178.00 270.00
C 178.00 266.00 178.00 262.00 178.00 258.00
C 186.94 255.36 185.02 263.93 185.00 270.00 C 184.98 276.07 185.01 282.87 185.00 289.00
C 176.08 291.85 177.97 282.79 178.00 277.00
M 216.00 258.00 
C 218.51 267.59 206.49 262.94 201.00 264.00
C 198.44 273.24 209.67 269.14 215.00 270.00
C 217.56 279.24 206.33 275.14 201.00 276.00
C 197.95 286.32 209.91 282.27 216.00 283.00
C 217.53 294.27 200.95 286.89 194.00 289.00
C 194.00 278.67 194.00 268.33 194.00 258.00
C 201.33 258.00 208.67 258.00 216.00 258.00
M 238.00 276.00 
C 241.06 279.64 243.19 284.71 249.00 283.00
C 250.72 296.49 232.37 285.07 231.00 277.00
C 228.81 280.09 230.57 285.16 230.00 289.00
C 221.06 291.64 222.98 283.07 223.00 277.00 C 223.02 270.93 222.99 264.13 223.00 258.00
C 229.64 258.54 238.69 256.11 243.75 261.25 C 248.80 266.40 244.62 275.64 238.00 276.00
M 270.00 276.00 
C 273.06 279.64 275.19 284.71 281.00 283.00
C 282.72 296.49 264.37 285.07 263.00 277.00
C 260.81 280.09 262.57 285.16 262.00 289.00
C 253.06 291.64 254.98 283.07 255.00 277.00 C 255.02 270.93 254.99 264.13 255.00 258.00
C 261.64 258.54 270.69 256.11 275.75 261.25 C 280.80 266.40 276.62 275.64 270.00 276.00
M 335.00 276.00 
C 334.13 273.34 333.97 259.36 336.00 258.00
C 337.38 257.08 340.46 258.70 342.00 258.00
C 342.00 268.33 342.00 278.67 342.00 289.00
C 331.47 289.84 328.53 276.59 323.00 270.00
C 320.72 275.42 322.63 282.82 322.00 289.00
C 313.06 291.64 314.98 283.07 315.00 277.00 C 315.02 270.93 314.99 264.13 315.00 258.00
C 326.25 256.00 328.06 270.51 335.00 276.00
M 322.00 300.00 
C 320.32 298.80 320.80 296.24 322.00 295.00
C 323.91 291.30 335.36 294.96 340.00 294.00 C 344.64 293.04 353.40 294.33 359.00 294.00 C 364.60 293.67 373.13 294.00 379.00 294.00
C 382.73 293.64 387.59 293.00 392.00 293.00
C 396.95 293.00 402.07 292.62 407.00 293.00
C 411.15 293.32 414.29 293.53 413.00 299.00
C 399.69 294.13 393.68 303.97 390.69 313.69 C 387.71 323.42 382.12 329.15 377.25 337.25 C 372.37 345.35 367.10 350.78 360.75 357.75 C 354.40 364.73 348.14 369.15 340.77 374.77 C 333.40 380.39 326.42 384.71 317.78 388.78 C 309.13 392.84 300.73 396.44 290.98 398.98 C 281.22 401.51 269.82 403.75 259.00 404.00 C 248.18 404.25 234.10 403.96 223.98 402.02 C 213.85 400.09 203.80 398.02 194.78 394.22 C 185.75 390.43 177.72 387.12 169.77 382.23 C 161.82 377.34 155.72 372.14 148.75 366.25 C 141.78 360.36 135.85 354.91 130.25 347.75 C 124.65 340.60 119.68 333.74 115.23 325.77 C 110.78 317.80 106.61 308.81 104.00 300.00
C 98.33 300.00 92.67 300.00 87.00 300.00
C 85.63 290.45 96.83 294.55 104.00 294.00 C 111.17 293.45 120.43 294.29 128.00 294.00 C 135.57 293.71 144.33 294.22 152.00 294.00
C 156.39 293.58 161.93 293.00 167.00 293.00
C 170.67 293.00 174.33 293.00 178.00 293.00
C 180.56 302.24 169.33 298.14 164.00 299.00
C 196.76 364.47 302.03 365.40 335.00 300.00
C 330.67 300.00 326.33 300.00 322.00 300.00 Z"/>
</g>
<g fill="None" fill-opacity="0.0" stroke="#000000" stroke-opacity="1.00" stroke-width="0.3"><path d="
M 103.00 201.00 
C 99.15 203.98 91.75 200.84 87.00 202.00
C 86.71 202.57 86.71 206.43 87.00 207.00
C 92.67 207.00 98.33 207.00 104.00 207.00
C 110.12 207.00 116.95 207.08 123.00 207.00 C 129.05 206.92 135.12 207.24 141.00 207.00 C 146.88 206.76 153.37 207.57 159.00 207.00 C 164.63 206.43 171.86 208.27 177.00 207.00 C 182.14 205.73 190.93 209.81 195.00 207.00
C 195.00 205.00 195.00 203.00 195.00 201.00
C 184.67 201.00 174.33 201.00 164.00 201.00
C 197.04 134.92 302.93 134.99 336.00 201.00
C 331.00 201.00 326.00 201.00 321.00 201.00
C 316.40 201.44 310.31 202.75 305.00 202.00
C 305.00 203.67 305.00 205.33 305.00 207.00
C 309.67 207.00 314.33 207.00 319.00 207.00
C 327.18 206.87 335.87 207.17 344.00 207.00 C 352.13 206.83 361.05 207.32 369.00 207.00 C 376.95 206.68 386.50 207.69 394.00 207.00 C 401.50 206.31 414.15 210.92 413.00 201.00
C 407.33 201.00 401.67 201.00 396.00 201.00
C 394.43 192.12 389.29 183.54 385.30 175.70 C 381.32 167.85 376.46 160.83 370.92 154.08 C 365.38 147.34 360.53 141.17 353.70 135.30 C 346.86 129.44 340.69 125.07 333.23 119.77 C 325.77 114.47 317.79 111.81 309.23 107.77 C 300.67 103.73 291.78 101.14 282.02 98.98 C 272.27 96.82 259.68 95.76 249.00 96.00 C 238.32 96.24 225.79 96.62 216.07 99.07 C 206.36 101.52 197.77 104.35 189.08 108.08 C 180.38 111.80 173.29 115.78 165.70 120.70 C 158.11 125.62 152.23 130.63 145.25 136.25 C 138.27 141.87 134.40 149.26 128.25 155.25 C 122.10 161.24 119.29 170.77 113.92 176.92 C 108.54 183.07 108.88 196.45 103.00 201.00
M 253.00 102.00 
C 313.40 102.00 371.12 143.60 390.00 201.00
C 377.53 201.92 363.29 199.78 351.00 201.00 C 338.71 202.22 338.14 189.33 330.75 182.25 C 323.35 175.18 318.65 169.41 310.25 163.75 C 301.86 158.08 294.23 154.32 284.32 150.68 C 274.42 147.04 261.25 144.70 250.00 145.00 C 238.75 145.30 226.29 146.80 216.32 150.32 C 206.35 153.84 198.88 157.94 190.30 163.30 C 181.73 168.67 177.37 175.01 169.75 181.75 C 162.13 188.50 162.12 201.67 150.00 201.00 C 137.88 200.33 122.43 201.50 110.00 201.00
C 128.72 144.34 186.23 101.81 246.00 102.00
C 248.19 101.79 250.87 101.79 253.00 102.00 Z"/>
</g>
<g fill="None" fill-opacity="0.0" stroke="#676767" stroke-opacity="1.00" stroke-width="0.3"><path d="
M 246.00 102.00 
C 248.33 102.00 250.67 102.00 253.00 102.00
C 250.87 101.79 248.19 101.79 246.00 102.00 Z"/>
</g>
<g fill="None" fill-opacity="0.0" stroke="#FAFAFA" stroke-opacity="1.00" stroke-width="0.3"><path d="
M 253.00 102.00 
C 250.67 102.00 248.33 102.00 246.00 102.00
C 186.23 101.81 128.72 144.34 110.00 201.00
C 122.43 201.50 137.88 200.33 150.00 201.00 C 162.12 201.67 162.13 188.50 169.75 181.75 C 177.37 175.01 181.73 168.67 190.30 163.30 C 198.88 157.94 206.35 153.84 216.32 150.32 C 226.29 146.80 238.75 145.30 250.00 145.00 C 261.25 144.70 274.42 147.04 284.32 150.68 C 294.23 154.32 301.86 158.08 310.25 163.75 C 318.65 169.41 323.35 175.18 330.75 182.25 C 338.14 189.33 338.71 202.22 351.00 201.00 C 363.29 199.78 377.53 201.92 390.00 201.00
C 371.12 143.60 313.40 102.00 253.00 102.00
M 229.00 126.00 
C 228.62 124.52 227.99 123.07 228.00 121.00
C 227.81 119.02 228.15 116.99 228.00 115.00
C 234.73 113.23 233.73 123.32 239.00 124.00
C 240.13 120.26 240.43 112.93 246.00 114.00
C 247.11 119.21 246.51 124.87 248.00 130.00
C 242.37 131.95 243.65 126.74 242.00 124.00
C 241.74 126.44 240.24 128.52 240.00 131.00
C 236.74 131.71 235.01 128.41 234.00 126.00
C 232.43 128.06 233.61 132.49 229.00 131.00
C 229.00 129.33 229.00 127.67 229.00 126.00
M 271.00 132.00 
C 270.25 135.84 276.72 132.06 276.00 136.00
C 268.17 139.29 255.25 126.95 264.25 118.25 C 273.25 109.55 286.24 129.27 271.00 132.00
M 216.00 118.00 
C 221.11 115.42 225.82 126.92 221.69 131.69 C 217.57 136.47 208.95 136.44 208.01 127.99 C 207.07 119.55 208.37 118.15 212.32 127.68 C 216.27 137.21 220.58 121.87 216.00 118.00
M 290.00 121.00 
C 287.76 123.64 285.02 135.06 290.70 133.64 C 296.37 132.23 291.85 119.13 300.00 124.00
C 298.35 130.99 294.48 140.10 286.31 136.69 C 278.13 133.28 283.10 118.11 290.00 121.00
M 201.00 140.00 
C 199.30 134.92 196.81 130.09 195.00 125.00
C 200.78 121.17 208.77 139.38 201.00 140.00
M 191.00 141.00 
C 190.92 140.92 190.00 141.66 190.00 142.00
C 189.94 148.22 186.23 147.19 182.00 145.00
C 184.57 153.93 178.36 150.08 175.08 141.92 C 171.79 133.77 180.59 137.50 186.00 142.00
C 182.72 137.25 186.07 126.03 189.77 131.23 C 193.47 136.43 198.29 140.40 193.00 144.00
C 192.70 142.75 191.17 142.29 191.00 141.00
M 314.00 131.00 
C 312.49 136.78 313.48 143.85 311.00 149.00
C 308.96 147.76 307.27 145.82 308.00 143.00
C 304.44 140.31 300.95 142.45 297.00 141.00
C 301.81 136.93 307.31 128.81 314.00 131.00
M 320.00 151.00 
C 330.61 157.21 318.10 157.13 314.00 151.00
C 316.85 146.54 321.14 142.82 323.00 138.00
C 331.36 139.99 321.72 146.96 320.00 151.00
M 169.00 145.00 
C 167.52 146.51 164.88 147.76 164.00 150.00
C 166.07 151.69 169.06 149.01 170.00 147.00
C 175.67 149.13 169.40 152.23 168.00 155.00
C 169.07 156.32 177.26 149.84 176.92 154.09 C 176.57 158.33 169.39 158.46 168.00 162.00
C 165.48 157.09 160.48 153.88 158.00 149.00
C 161.78 147.75 166.13 138.88 169.00 145.00
M 332.00 160.00 
C 330.68 161.34 326.18 165.01 326.00 160.00
C 325.90 157.11 338.61 144.89 340.00 152.00
C 337.04 154.21 334.10 157.02 332.00 160.00
M 344.00 155.00 
C 346.87 159.12 351.33 162.39 353.00 167.00
C 349.47 169.49 349.21 165.26 346.00 165.00
C 343.23 167.51 337.81 175.29 335.00 169.00
C 338.48 167.35 340.08 162.49 344.00 162.00
C 343.51 159.19 339.09 156.67 344.00 155.00
M 158.00 164.00 
C 161.12 164.60 162.66 160.82 166.00 162.00
C 166.49 167.23 159.80 169.15 156.00 167.00
C 163.53 178.61 149.28 170.24 145.00 165.00
C 145.93 157.69 159.92 152.82 158.00 164.00
M 356.00 169.00 
C 358.87 171.99 356.97 174.77 356.00 178.00
C 359.26 177.53 363.20 177.85 363.00 182.00
C 357.07 181.55 351.29 181.67 347.00 186.00
C 343.72 180.02 354.09 175.13 356.00 169.00
M 145.00 183.00 
C 148.44 183.01 149.46 186.42 148.00 189.00
C 143.05 187.15 138.90 183.25 134.00 181.00
C 134.39 167.44 154.90 170.78 145.00 183.00 Z"/>
</g>
<g fill="None" fill-opacity="0.0" stroke="#010101" stroke-opacity="1.00" stroke-width="0.3"><path d="
M 228.00 121.00 
C 228.09 121.92 228.80 124.53 229.00 126.00
C 229.00 127.67 229.00 129.33 229.00 131.00
C 233.61 132.49 232.43 128.06 234.00 126.00
C 235.01 128.41 236.74 131.71 240.00 131.00
C 240.24 128.52 241.74 126.44 242.00 124.00
C 243.65 126.74 242.37 131.95 248.00 130.00
C 246.51 124.87 247.11 119.21 246.00 114.00
C 240.43 112.93 240.13 120.26 239.00 124.00
C 233.73 123.32 234.73 113.23 228.00 115.00
C 228.15 116.99 227.81 119.02 228.00 121.00 Z"/>
</g>
<g fill="None" fill-opacity="0.0" stroke="#010101" stroke-opacity="1.00" stroke-width="0.3"><path d="
M 271.00 132.00 
C 286.24 129.27 273.25 109.55 264.25 118.25 C 255.25 126.95 268.17 139.29 276.00 136.00
C 276.72 132.06 270.25 135.84 271.00 132.00
M 272.00 120.00 
C 276.31 121.76 272.63 130.23 268.00 128.00 C 263.37 125.76 267.19 118.03 272.00 120.00 Z"/>
</g>
<g fill="None" fill-opacity="0.0" stroke="#030303" stroke-opacity="1.00" stroke-width="0.3"><path d="
M 216.00 118.00 
C 220.58 121.87 216.27 137.21 212.32 127.68 C 208.37 118.15 207.07 119.55 208.01 127.99 C 208.95 136.44 217.57 136.47 221.69 131.69 C 225.82 126.92 221.11 115.42 216.00 118.00 Z"/>
</g>
<g fill="None" fill-opacity="0.0" stroke="#EEEEEE" stroke-opacity="1.00" stroke-width="0.3"><path d="
M 272.00 120.00 
C 267.19 118.03 263.37 125.76 268.00 128.00 C 272.63 130.23 276.31 121.76 272.00 120.00 Z"/>
</g>
<g fill="None" fill-opacity="0.0" stroke="#020202" stroke-opacity="1.00" stroke-width="0.3"><path d="
M 290.00 121.00 
C 283.10 118.11 278.13 133.28 286.31 136.69 C 294.48 140.10 298.35 130.99 300.00 124.00
C 291.85 119.13 296.37 132.23 290.70 133.64 C 285.02 135.06 287.76 123.64 290.00 121.00 Z"/>
</g>
<g fill="None" fill-opacity="0.0" stroke="#777777" stroke-opacity="1.00" stroke-width="0.3"><path d="
M 229.00 126.00 
C 228.80 124.53 228.09 121.92 228.00 121.00
C 227.99 123.07 228.62 124.52 229.00 126.00 Z"/>
</g>
<g fill="None" fill-opacity="0.0" stroke="#020202" stroke-opacity="1.00" stroke-width="0.3"><path d="
M 201.00 140.00 
C 208.77 139.38 200.78 121.17 195.00 125.00
C 196.81 130.09 199.30 134.92 201.00 140.00 Z"/>
</g>
<g fill="None" fill-opacity="0.0" stroke="#010101" stroke-opacity="1.00" stroke-width="0.3"><path d="
M 190.00 142.00 
C 189.18 141.18 188.76 140.40 189.00 139.00
C 189.83 139.41 190.87 139.97 191.00 141.00
C 191.17 142.29 192.70 142.75 193.00 144.00
C 198.29 140.40 193.47 136.43 189.77 131.23 C 186.07 126.03 182.72 137.25 186.00 142.00
C 180.59 137.50 171.79 133.77 175.08 141.92 C 178.36 150.08 184.57 153.93 182.00 145.00
C 186.23 147.19 189.94 148.22 190.00 142.00 Z"/>
</g>
<g fill="None" fill-opacity="0.0" stroke="#020202" stroke-opacity="1.00" stroke-width="0.3"><path d="
M 314.00 131.00 
C 307.31 128.81 301.81 136.93 297.00 141.00
C 300.95 142.45 304.44 140.31 308.00 143.00
C 307.27 145.82 308.96 147.76 311.00 149.00
C 313.48 143.85 312.49 136.78 314.00 131.00
M 309.00 136.00 
C 309.99 140.88 304.76 137.54 309.00 136.00 Z"/>
</g>
<g fill="None" fill-opacity="0.0" stroke="#E6E6E6" stroke-opacity="1.00" stroke-width="0.3"><path d="
M 309.00 136.00 
C 304.76 137.54 309.99 140.88 309.00 136.00 Z"/>
</g>
<g fill="None" fill-opacity="0.0" stroke="#020202" stroke-opacity="1.00" stroke-width="0.3"><path d="
M 320.00 151.00 
C 321.72 146.96 331.36 139.99 323.00 138.00
C 321.14 142.82 316.85 146.54 314.00 151.00
C 318.10 157.13 330.61 157.21 320.00 151.00 Z"/>
</g>
<g fill="None" fill-opacity="0.0" stroke="#808080" stroke-opacity="1.00" stroke-width="0.3"><path d="
M 190.00 142.00 
C 190.00 141.66 190.92 140.92 191.00 141.00
C 190.87 139.97 189.83 139.41 189.00 139.00
C 188.76 140.40 189.18 141.18 190.00 142.00 Z"/>
</g>
<g fill="None" fill-opacity="0.0" stroke="#020202" stroke-opacity="1.00" stroke-width="0.3"><path d="
M 169.00 145.00 
C 166.13 138.88 161.78 147.75 158.00 149.00
C 160.48 153.88 165.48 157.09 168.00 162.00
C 169.39 158.46 176.57 158.33 176.92 154.09 C 177.26 149.84 169.07 156.32 168.00 155.00
C 169.40 152.23 175.67 149.13 170.00 147.00
C 169.06 149.01 166.07 151.69 164.00 150.00
C 164.88 147.76 167.52 146.51 169.00 145.00 Z"/>
</g>
<g fill="None" fill-opacity="0.0" stroke="#000000" stroke-opacity="1.00" stroke-width="0.3"><path d="
M 326.00 160.00 
C 326.60 163.19 330.76 160.91 332.00 160.00
C 334.10 157.02 337.04 154.21 340.00 152.00
C 338.61 144.89 325.90 157.11 326.00 160.00 Z"/>
</g>
<g fill="None" fill-opacity="0.0" stroke="#010101" stroke-opacity="1.00" stroke-width="0.3"><path d="
M 344.00 155.00 
C 339.09 156.67 343.51 159.19 344.00 162.00
C 340.08 162.49 338.48 167.35 335.00 169.00
C 337.81 175.29 343.23 167.51 346.00 165.00
C 349.21 165.26 349.47 169.49 353.00 167.00
C 351.33 162.39 346.87 159.12 344.00 155.00 Z"/>
</g>
<g fill="None" fill-opacity="0.0" stroke="#010101" stroke-opacity="1.00" stroke-width="0.3"><path d="
M 158.00 164.00 
C 159.92 152.82 145.93 157.69 145.00 165.00
C 149.28 170.24 163.53 178.61 156.00 167.00
C 159.80 169.15 166.49 167.23 166.00 162.00
C 162.66 160.82 161.12 164.60 158.00 164.00
M 154.00 161.00 
C 154.92 167.98 147.67 161.56 154.00 161.00 Z"/>
</g>
<g fill="None" fill-opacity="0.0" stroke="#707070" stroke-opacity="1.00" stroke-width="0.3"><path d="
M 332.00 160.00 
C 330.76 160.91 326.60 163.19 326.00 160.00
C 326.18 165.01 330.68 161.34 332.00 160.00 Z"/>
</g>
<g fill="None" fill-opacity="0.0" stroke="#F2F2F2" stroke-opacity="1.00" stroke-width="0.3"><path d="
M 154.00 161.00 
C 147.67 161.56 154.92 167.98 154.00 161.00 Z"/>
</g>
<g fill="None" fill-opacity="0.0" stroke="#030303" stroke-opacity="1.00" stroke-width="0.3"><path d="
M 356.00 169.00 
C 354.09 175.13 343.72 180.02 347.00 186.00
C 351.29 181.67 357.07 181.55 363.00 182.00
C 363.20 177.85 359.26 177.53 356.00 178.00
C 356.97 174.77 358.87 171.99 356.00 169.00 Z"/>
</g>
<g fill="None" fill-opacity="0.0" stroke="#010101" stroke-opacity="1.00" stroke-width="0.3"><path d="
M 145.00 183.00 
C 154.90 170.78 134.39 167.44 134.00 181.00
C 138.90 183.25 143.05 187.15 148.00 189.00
C 149.46 186.42 148.44 183.01 145.00 183.00
M 144.00 177.00 
C 144.26 177.46 142.16 179.21 143.00 180.00
C 141.01 180.56 138.16 179.03 140.00 177.00
C 140.84 175.32 143.80 174.14 144.00 177.00 Z"/>
</g>
<g fill="None" fill-opacity="0.0" stroke="#707070" stroke-opacity="1.00" stroke-width="0.3"><path d="
M 140.00 177.00 
C 140.89 176.19 143.25 175.69 144.00 177.00
C 143.80 174.14 140.84 175.32 140.00 177.00 Z"/>
</g>
<g fill="None" fill-opacity="0.0" stroke="#DFDFDF" stroke-opacity="1.00" stroke-width="0.3"><path d="
M 140.00 177.00 
C 138.16 179.03 141.01 180.56 143.00 180.00
C 142.16 179.21 144.26 177.46 144.00 177.00
C 143.25 175.69 140.89 176.19 140.00 177.00 Z"/>
</g>
<g fill="None" fill-opacity="0.0" stroke="#717171" stroke-opacity="1.00" stroke-width="0.3"><path d="
M 87.00 202.00 
C 91.75 200.84 99.15 203.98 103.00 201.00
C 99.77 202.72 88.88 198.36 87.00 202.00 Z"/>
</g>
<g fill="None" fill-opacity="0.0" stroke="#818181" stroke-opacity="1.00" stroke-width="0.3"><path d="
M 195.00 207.00 
C 196.55 205.93 196.56 202.07 195.00 201.00
C 195.00 203.00 195.00 205.00 195.00 207.00 Z"/>
</g>
<g fill="None" fill-opacity="0.0" stroke="#6F6F6F" stroke-opacity="1.00" stroke-width="0.3"><path d="
M 305.00 202.00 
C 310.31 202.75 316.40 201.44 321.00 201.00
C 317.19 201.00 307.60 199.40 305.00 202.00 Z"/>
</g>
<g fill="None" fill-opacity="0.0" stroke="#8C8C8C" stroke-opacity="1.00" stroke-width="0.3"><path d="
M 319.00 207.00 
C 314.33 207.00 309.67 207.00 305.00 207.00
C 305.00 205.33 305.00 203.67 305.00 202.00
C 297.20 209.80 317.14 207.18 319.00 207.00 Z"/>
</g>
<g fill="None" fill-opacity="0.0" stroke="#8E8E8E" stroke-opacity="1.00" stroke-width="0.3"><path d="
M 104.00 207.00 
C 98.33 207.00 92.67 207.00 87.00 207.00
C 88.73 210.36 101.47 207.24 104.00 207.00 Z"/>
</g>
<g fill="None" fill-opacity="0.0" stroke="#000000" stroke-opacity="1.00" stroke-width="0.3"><path d="
M 231.00 210.00 
C 225.60 209.96 219.31 210.06 214.00 210.00 C 208.69 209.94 201.93 208.51 204.00 216.00
C 207.33 216.00 210.67 216.00 214.00 216.00
C 216.40 223.98 207.94 243.00 221.00 241.00
C 221.00 232.67 221.00 224.33 221.00 216.00
C 225.88 216.12 233.39 217.44 231.00 210.00 Z"/>
</g>
<g fill="None" fill-opacity="0.0" stroke="#737373" stroke-opacity="1.00" stroke-width="0.3"><path d="
M 237.00 241.00 
C 237.00 230.67 237.00 220.33 237.00 210.00
C 234.39 211.50 236.14 223.07 236.00 226.00 C 235.86 228.93 234.57 239.61 237.00 241.00 Z"/>
</g>
<g fill="None" fill-opacity="0.0" stroke="#000000" stroke-opacity="1.00" stroke-width="0.3"><path d="
M 237.00 241.00 
C 237.60 241.34 242.40 241.34 243.00 241.00
C 244.06 237.28 241.14 230.75 244.00 228.00
C 247.02 227.73 253.99 226.99 256.00 229.00
C 258.42 233.68 254.16 244.24 264.00 241.00
C 264.01 234.87 263.98 228.07 264.00 222.00 C 264.02 215.93 265.94 207.36 257.00 210.00
C 257.00 214.00 257.00 218.00 257.00 222.00
C 253.74 220.47 246.91 224.04 244.00 222.00
C 241.08 219.96 244.12 213.05 243.00 210.00
C 242.40 209.66 237.60 209.66 237.00 210.00
C 237.00 220.33 237.00 230.67 237.00 241.00 Z"/>
</g>
<g fill="None" fill-opacity="0.0" stroke="#5F5F5F" stroke-opacity="1.00" stroke-width="0.3"><path d="
M 244.00 222.00 
C 242.84 219.20 245.98 211.71 243.00 210.00
C 244.12 213.05 241.08 219.96 244.00 222.00 Z"/>
</g>
<g fill="None" fill-opacity="0.0" stroke="#000000" stroke-opacity="1.00" stroke-width="0.3"><path d="
M 294.00 210.00 
C 287.00 210.00 280.00 210.00 273.00 210.00
C 273.00 220.33 273.00 230.67 273.00 241.00
C 279.98 239.07 295.43 245.99 295.00 235.00
C 288.91 234.27 276.95 238.32 280.00 228.00
C 285.19 227.36 295.58 230.86 293.00 222.00
C 287.81 221.36 277.42 224.86 280.00 216.00
C 285.33 215.14 296.56 219.24 294.00 210.00 Z"/>
</g>
<g fill="None" fill-opacity="0.0" stroke="#5B5B5B" stroke-opacity="1.00" stroke-width="0.3"><path d="
M 243.00 241.00 
C 245.25 239.71 244.00 231.55 244.00 229.00
C 244.00 228.50 244.00 228.00 244.00 228.00
C 241.14 230.75 244.06 237.28 243.00 241.00 Z"/>
</g>
<g fill="None" fill-opacity="0.0" stroke="#939393" stroke-opacity="1.00" stroke-width="0.3"><path d="
M 244.00 229.00 
C 246.64 229.24 253.92 227.54 256.00 229.00
C 253.99 226.99 247.02 227.73 244.00 228.00
C 244.00 228.00 244.00 228.50 244.00 229.00 Z"/>
</g>
<g fill="None" fill-opacity="0.0" stroke="#C4C4C4" stroke-opacity="1.00" stroke-width="0.3"><path d="
M 286.00 258.00 
C 286.00 257.96 287.00 258.00 287.00 258.00
C 294.00 258.00 301.00 258.00 308.00 258.00
C 306.44 255.66 287.92 256.00 286.00 258.00 Z"/>
</g>
<g fill="None" fill-opacity="0.0" stroke="#000000" stroke-opacity="1.00" stroke-width="0.3"><path d="
M 165.00 277.00 
C 166.31 275.12 176.73 275.18 178.00 277.00
C 177.97 282.79 176.08 291.85 185.00 289.00
C 185.01 282.87 184.98 276.07 185.00 270.00 C 185.02 263.93 186.94 255.36 178.00 258.00
C 178.00 262.00 178.00 266.00 178.00 270.00
C 173.67 270.00 169.33 270.00 165.00 270.00
C 165.03 264.21 166.92 255.15 158.00 258.00
C 157.99 264.13 158.02 270.93 158.00 277.00 C 157.98 283.07 156.06 291.64 165.00 289.00
C 166.41 285.99 163.12 279.68 165.00 277.00 Z"/>
</g>
<g fill="None" fill-opacity="0.0" stroke="#000000" stroke-opacity="1.00" stroke-width="0.3"><path d="
M 216.00 258.00 
C 208.67 258.00 201.33 258.00 194.00 258.00
C 194.00 268.33 194.00 278.67 194.00 289.00
C 200.95 286.89 217.53 294.27 216.00 283.00
C 209.91 282.27 197.95 286.32 201.00 276.00
C 206.33 275.14 217.56 279.24 215.00 270.00
C 209.67 269.14 198.44 273.24 201.00 264.00
C 206.49 262.94 218.51 267.59 216.00 258.00 Z"/>
</g>
<g fill="None" fill-opacity="0.0" stroke="#000000" stroke-opacity="1.00" stroke-width="0.3"><path d="
M 238.00 276.00 
C 244.62 275.64 248.80 266.40 243.75 261.25 C 238.69 256.11 229.64 258.54 223.00 258.00
C 222.99 264.13 223.02 270.93 223.00 277.00 C 222.98 283.07 221.06 291.64 230.00 289.00
C 230.57 285.16 228.81 280.09 231.00 277.00
C 232.37 285.07 250.72 296.49 249.00 283.00
C 243.19 284.71 241.06 279.64 238.00 276.00
M 230.00 271.00 
C 227.55 265.56 233.40 260.97 237.74 265.26 C 242.09 269.55 233.43 272.51 230.00 271.00 Z"/>
</g>
<g fill="None" fill-opacity="0.0" stroke="#000000" stroke-opacity="1.00" stroke-width="0.3"><path d="
M 270.00 276.00 
C 276.62 275.64 280.80 266.40 275.75 261.25 C 270.69 256.11 261.64 258.54 255.00 258.00
C 254.99 264.13 255.02 270.93 255.00 277.00 C 254.98 283.07 253.06 291.64 262.00 289.00
C 262.57 285.16 260.81 280.09 263.00 277.00
C 264.37 285.07 282.72 296.49 281.00 283.00
C 275.19 284.71 273.06 279.64 270.00 276.00
M 262.00 271.00 
C 259.55 265.56 265.40 260.97 269.74 265.26 C 274.09 269.55 265.43 272.51 262.00 271.00 Z"/>
</g>
<g fill="None" fill-opacity="0.0" stroke="#737373" stroke-opacity="1.00" stroke-width="0.3"><path d="
M 287.00 289.00 
C 286.31 278.73 287.92 268.25 287.00 258.00
C 287.00 258.00 286.00 257.96 286.00 258.00
C 285.62 262.23 285.56 270.06 286.00 274.00 C 286.44 277.94 283.97 286.88 287.00 289.00 Z"/>
</g>
<g fill="None" fill-opacity="0.0" stroke="#000000" stroke-opacity="1.00" stroke-width="0.3"><path d="
M 287.00 289.00 
C 293.71 287.01 309.72 294.09 308.00 283.00
C 304.46 281.36 297.16 285.18 294.00 283.00
C 292.24 281.78 292.73 278.27 294.00 277.00
C 298.11 273.94 309.90 279.70 307.00 270.00
C 303.71 268.48 296.94 272.03 294.00 270.00
C 292.44 268.93 292.45 265.07 294.00 264.00
C 298.67 264.00 303.33 264.00 308.00 264.00
C 307.30 262.47 308.92 259.38 308.00 258.00
C 301.00 258.00 294.00 258.00 287.00 258.00
C 287.92 268.25 286.31 278.73 287.00 289.00 Z"/>
</g>
<g fill="None" fill-opacity="0.0" stroke="#000000" stroke-opacity="1.00" stroke-width="0.3"><path d="
M 336.00 258.00 
C 335.54 261.47 337.06 276.19 335.00 276.00
C 328.06 270.51 326.25 256.00 315.00 258.00
C 314.99 264.13 315.02 270.93 315.00 277.00 C 314.98 283.07 313.06 291.64 322.00 289.00
C 322.63 282.82 320.72 275.42 323.00 270.00
C 328.53 276.59 331.47 289.84 342.00 289.00
C 342.00 278.67 342.00 268.33 342.00 258.00
C 340.46 258.70 337.38 257.08 336.00 258.00 Z"/>
</g>
<g fill="None" fill-opacity="0.0" stroke="#6E6E6E" stroke-opacity="1.00" stroke-width="0.3"><path d="
M 335.00 276.00 
C 337.06 276.19 335.54 261.47 336.00 258.00
C 333.97 259.36 334.13 273.34 335.00 276.00 Z"/>
</g>
<g fill="None" fill-opacity="0.0" stroke="#F7F7F7" stroke-opacity="1.00" stroke-width="0.3"><path d="
M 230.00 271.00 
C 233.43 272.51 242.09 269.55 237.74 265.26 C 233.40 260.97 227.55 265.56 230.00 271.00 Z"/>
</g>
<g fill="None" fill-opacity="0.0" stroke="#F7F7F7" stroke-opacity="1.00" stroke-width="0.3"><path d="
M 262.00 271.00 
C 265.43 272.51 274.09 269.55 269.74 265.26 C 265.40 260.97 259.55 265.56 262.00 271.00 Z"/>
</g>
<g fill="None" fill-opacity="0.0" stroke="#838383" stroke-opacity="1.00" stroke-width="0.3"><path d="
M 294.00 270.00 
C 294.00 268.00 294.00 266.00 294.00 264.00
C 292.45 265.07 292.44 268.93 294.00 270.00 Z"/>
</g>
<g fill="None" fill-opacity="0.0" stroke="#929292" stroke-opacity="1.00" stroke-width="0.3"><path d="
M 165.00 277.00 
C 169.33 277.00 173.67 277.00 178.00 277.00
C 176.73 275.18 166.31 275.12 165.00 277.00 Z"/>
</g>
<g fill="None" fill-opacity="0.0" stroke="#7E7E7E" stroke-opacity="1.00" stroke-width="0.3"><path d="
M 294.00 283.00 
C 294.65 281.37 293.14 278.50 294.00 277.00
C 292.73 278.27 292.24 281.78 294.00 283.00 Z"/>
</g>
<g fill="None" fill-opacity="0.0" stroke="#747474" stroke-opacity="1.00" stroke-width="0.3"><path d="
M 152.00 294.00 
C 157.06 294.00 162.68 293.42 167.00 293.00
C 161.93 293.00 156.39 293.58 152.00 294.00 Z"/>
</g>
<g fill="None" fill-opacity="0.0" stroke="#000000" stroke-opacity="1.00" stroke-width="0.3"><path d="
M 152.00 294.00 
C 144.33 294.22 135.57 293.71 128.00 294.00 C 120.43 294.29 111.17 293.45 104.00 294.00 C 96.83 294.55 85.63 290.45 87.00 300.00
C 92.67 300.00 98.33 300.00 104.00 300.00
C 106.61 308.81 110.78 317.80 115.23 325.77 C 119.68 333.74 124.65 340.60 130.25 347.75 C 135.85 354.91 141.78 360.36 148.75 366.25 C 155.72 372.14 161.82 377.34 169.77 382.23 C 177.72 387.12 185.75 390.43 194.78 394.22 C 203.80 398.02 213.85 400.09 223.98 402.02 C 234.10 403.96 248.18 404.25 259.00 404.00 C 269.82 403.75 281.22 401.51 290.98 398.98 C 300.73 396.44 309.13 392.84 317.78 388.78 C 326.42 384.71 333.40 380.39 340.77 374.77 C 348.14 369.15 354.40 364.73 360.75 357.75 C 367.10 350.78 372.37 345.35 377.25 337.25 C 382.12 329.15 387.71 323.42 390.69 313.69 C 393.68 303.97 399.69 294.13 413.00 299.00
C 414.29 293.53 411.15 293.32 407.00 293.00
C 402.83 293.09 396.90 294.00 392.00 294.00
C 387.67 294.00 383.33 294.00 379.00 294.00
C 373.13 294.00 364.60 293.67 359.00 294.00 C 353.40 294.33 344.64 293.04 340.00 294.00 C 335.36 294.96 323.91 291.30 322.00 295.00
C 321.32 296.32 322.51 298.60 322.00 300.00
C 326.33 300.00 330.67 300.00 335.00 300.00
C 302.03 365.40 196.76 364.47 164.00 299.00
C 169.33 298.14 180.56 302.24 178.00 293.00
C 174.33 293.00 170.67 293.00 167.00 293.00
C 162.68 293.42 157.06 294.00 152.00 294.00
M 157.00 300.00 
C 163.25 303.99 164.29 314.28 170.75 319.25 C 177.21 324.22 181.44 331.18 188.70 335.30 C 195.95 339.42 202.00 344.54 210.23 347.77 C 218.46 351.00 228.79 353.40 238.00 354.00
C 239.57 354.10 241.04 354.83 242.00 355.00
C 282.72 357.37 323.68 337.14 342.00 300.00
C 353.33 300.00 364.67 300.00 376.00 300.00
C 379.96 299.62 388.70 296.85 389.00 301.00
C 389.76 311.61 378.33 322.61 374.08 332.08 C 369.82 341.54 360.07 348.41 352.75 356.75 C 345.44 365.09 336.49 370.72 326.92 376.92 C 317.35 383.12 306.76 387.27 295.32 391.32 C 283.88 395.37 267.99 398.00 255.00 398.00
C 251.86 398.30 248.08 398.30 245.00 398.00
C 185.70 398.00 129.63 355.59 110.00 300.00
C 120.00 300.00 130.00 300.00 140.00 300.00
C 144.48 299.57 152.67 297.24 157.00 300.00 Z"/>
</g>
<g fill="None" fill-opacity="0.0" stroke="#8B8B8B" stroke-opacity="1.00" stroke-width="0.3"><path d="
M 379.00 294.00 
C 383.33 294.00 387.67 294.00 392.00 294.00
C 391.96 294.00 392.00 293.00 392.00 293.00
C 387.59 293.00 382.73 293.64 379.00 294.00 Z"/>
</g>
<g fill="None" fill-opacity="0.0" stroke="#646464" stroke-opacity="1.00" stroke-width="0.3"><path d="
M 392.00 294.00 
C 396.90 294.00 402.83 293.09 407.00 293.00
C 402.07 292.62 396.95 293.00 392.00 293.00
C 392.00 293.00 391.96 294.00 392.00 294.00 Z"/>
</g>
<g fill="None" fill-opacity="0.0" stroke="#7F7F7F" stroke-opacity="1.00" stroke-width="0.3"><path d="
M 322.00 300.00 
C 322.51 298.60 321.32 296.32 322.00 295.00
C 320.80 296.24 320.32 298.80 322.00 300.00 Z"/>
</g>
<g fill="None" fill-opacity="0.0" stroke="#6B6B6B" stroke-opacity="1.00" stroke-width="0.3"><path d="
M 140.00 300.00 
C 144.40 300.00 153.03 298.28 157.00 300.00
C 152.67 297.24 144.48 299.57 140.00 300.00 Z"/>
</g>
<g fill="None" fill-opacity="0.0" stroke="#6C6C6C" stroke-opacity="1.00" stroke-width="0.3"><path d="
M 376.00 300.00 
C 378.76 300.00 387.54 298.66 389.00 301.00
C 388.70 296.85 379.96 299.62 376.00 300.00 Z"/>
</g>
<g fill="None" fill-opacity="0.0" stroke="#F9F9F9" stroke-opacity="1.00" stroke-width="0.3"><path d="
M 245.00 398.00 
C 248.33 398.00 251.67 398.00 255.00 398.00
C 267.99 398.00 283.88 395.37 295.32 391.32 C 306.76 387.27 317.35 383.12 326.92 376.92 C 336.49 370.72 345.44 365.09 352.75 356.75 C 360.07 348.41 369.82 341.54 374.08 332.08 C 378.33 322.61 389.76 311.61 389.00 301.00
C 387.54 298.66 378.76 300.00 376.00 300.00
C 364.67 300.00 353.33 300.00 342.00 300.00
C 323.68 337.14 282.72 357.37 242.00 355.00
C 240.40 354.91 239.00 354.18 238.00 354.00
C 228.79 353.40 218.46 351.00 210.23 347.77 C 202.00 344.54 195.95 339.42 188.70 335.30 C 181.44 331.18 177.21 324.22 170.75 319.25 C 164.29 314.28 163.25 303.99 157.00 300.00
C 153.03 298.28 144.40 300.00 140.00 300.00
C 130.00 300.00 120.00 300.00 110.00 300.00
C 129.63 355.59 185.70 398.00 245.00 398.00
M 351.00 313.00 
C 352.62 317.41 345.17 318.13 347.33 322.67 C 349.49 327.22 355.90 324.41 355.00 320.00
C 349.75 324.19 350.52 318.17 353.00 315.00
C 356.16 315.13 358.11 318.09 361.00 319.00
C 358.35 324.35 353.92 332.82 346.77 328.23 C 339.62 323.64 343.09 312.92 351.00 313.00
M 149.00 314.00 
C 158.11 316.87 152.70 333.06 143.00 329.00 C 133.30 324.94 139.14 310.89 149.00 314.00
M 338.00 338.00 
C 338.85 339.48 340.15 340.58 341.00 342.00
C 342.25 344.10 342.93 345.37 339.00 346.00
C 336.41 342.27 332.23 340.10 329.00 337.00
C 330.78 332.43 336.24 334.42 340.00 334.00
C 337.81 331.50 333.87 327.89 339.00 326.00
C 341.87 329.64 345.36 333.23 349.00 336.00
C 347.02 341.16 341.79 337.81 338.00 338.00
M 159.00 327.00 
C 160.29 329.31 166.86 334.23 163.22 337.22 C 159.58 340.22 154.75 339.30 158.00 346.00
C 152.19 346.73 152.31 339.58 154.00 336.00
C 151.84 338.39 148.43 340.18 147.00 336.00
C 151.12 333.10 154.22 328.42 159.00 327.00
M 163.00 352.00 
C 155.64 347.67 166.89 342.33 169.00 338.00
C 175.89 342.08 164.68 347.38 163.00 352.00
M 326.00 339.00 
C 329.52 342.58 332.04 347.07 336.00 350.00
C 333.10 357.19 319.25 341.57 326.00 339.00
M 325.00 359.00 
C 323.16 355.20 320.30 354.77 317.00 357.00
C 323.92 369.96 309.71 358.71 308.00 352.00
C 310.67 349.50 313.24 350.52 314.00 354.00
C 319.80 353.88 318.89 349.26 316.00 346.00
C 321.28 343.25 330.72 355.93 325.00 359.00
M 185.00 354.00 
C 181.06 355.11 179.33 348.05 175.33 350.33 C 171.33 352.62 173.36 358.95 178.00 358.00
C 174.62 348.96 188.49 359.65 179.00 364.00
C 173.39 362.17 165.95 356.16 170.31 349.31 C 174.66 342.45 185.57 347.12 185.00 354.00
M 307.00 353.00 
C 308.53 356.67 306.46 357.07 304.00 359.00
C 305.70 362.36 307.31 365.65 309.00 369.00
C 305.85 371.44 303.16 370.34 302.23 365.77 C 301.30 361.21 297.79 361.51 294.00 361.00
C 296.11 356.66 302.95 355.87 307.00 353.00
M 194.00 355.00 
C 192.27 359.79 188.73 364.19 187.00 369.00
C 179.51 367.35 188.76 352.21 194.00 355.00
M 204.00 368.00 
C 204.64 365.02 205.96 360.83 210.00 362.00
C 208.01 366.74 207.59 376.26 201.00 376.00
C 200.39 372.66 200.05 368.58 198.00 366.00
C 197.22 369.26 196.46 374.70 192.00 372.00
C 192.94 367.11 195.79 362.82 197.00 358.00
C 203.09 357.23 201.07 365.38 204.00 368.00
M 291.00 362.00 
C 300.03 364.57 294.98 381.22 285.33 377.67 C 275.68 374.12 281.52 359.31 291.00 362.00
M 222.00 366.00 
C 221.95 371.51 223.34 376.64 224.00 382.00
C 218.74 379.55 215.09 375.32 209.00 379.00
C 211.11 373.96 215.53 364.25 222.00 366.00
M 279.00 377.00 
C 280.40 383.18 272.27 380.70 269.00 383.00
C 268.19 377.97 267.15 372.98 266.00 368.00
C 274.90 364.14 268.16 383.62 279.00 377.00
M 234.00 368.00 
C 232.61 372.68 230.73 382.56 239.00 380.00
C 238.88 386.77 232.09 382.05 228.00 383.00
C 229.18 378.05 226.15 367.12 234.00 368.00
M 264.00 372.00 
C 261.13 374.16 255.51 369.97 254.08 375.08 C 252.66 380.19 259.35 381.51 262.00 378.00
C 267.25 385.11 251.60 386.84 250.08 378.92 C 248.55 371.01 258.84 364.52 264.00 372.00 Z"/>
</g>
<g fill="None" fill-opacity="0.0" stroke="#020202" stroke-opacity="1.00" stroke-width="0.3"><path d="
M 351.00 313.00 
C 343.09 312.92 339.62 323.64 346.77 328.23 C 353.92 332.82 358.35 324.35 361.00 319.00
C 358.11 318.09 356.16 315.13 353.00 315.00
C 350.52 318.17 349.75 324.19 355.00 320.00
C 355.90 324.41 349.49 327.22 347.33 322.67 C 345.17 318.13 352.62 317.41 351.00 313.00 Z"/>
</g>
<g fill="None" fill-opacity="0.0" stroke="#010101" stroke-opacity="1.00" stroke-width="0.3"><path d="
M 149.00 314.00 
C 139.14 310.89 133.30 324.94 143.00 329.00 C 152.70 333.06 158.11 316.87 149.00 314.00
M 148.00 318.00 
C 152.34 319.78 148.45 327.16 144.00 325.00 C 139.55 322.84 143.59 316.20 148.00 318.00 Z"/>
</g>
<g fill="None" fill-opacity="0.0" stroke="#F1F1F1" stroke-opacity="1.00" stroke-width="0.3"><path d="
M 148.00 318.00 
C 143.59 316.20 139.55 322.84 144.00 325.00 C 148.45 327.16 152.34 319.78 148.00 318.00 Z"/>
</g>
<g fill="None" fill-opacity="0.0" stroke="#010101" stroke-opacity="1.00" stroke-width="0.3"><path d="
M 341.00 342.00 
C 340.35 341.12 335.86 339.04 338.00 338.00
C 341.79 337.81 347.02 341.16 349.00 336.00
C 345.36 333.23 341.87 329.64 339.00 326.00
C 333.87 327.89 337.81 331.50 340.00 334.00
C 336.24 334.42 330.78 332.43 329.00 337.00
C 332.23 340.10 336.41 342.27 339.00 346.00
C 342.93 345.37 342.25 344.10 341.00 342.00 Z"/>
</g>
<g fill="None" fill-opacity="0.0" stroke="#010101" stroke-opacity="1.00" stroke-width="0.3"><path d="
M 159.00 327.00 
C 154.22 328.42 151.12 333.10 147.00 336.00
C 148.43 340.18 151.84 338.39 154.00 336.00
C 152.31 339.58 152.19 346.73 158.00 346.00
C 154.75 339.30 159.58 340.22 163.22 337.22 C 166.86 334.23 160.29 329.31 159.00 327.00
M 159.00 336.00 
C 152.23 333.12 162.33 330.18 159.00 336.00 Z"/>
</g>
<g fill="None" fill-opacity="0.0" stroke="#D4D4D4" stroke-opacity="1.00" stroke-width="0.3"><path d="
M 159.00 336.00 
C 162.33 330.18 152.23 333.12 159.00 336.00 Z"/>
</g>
<g fill="None" fill-opacity="0.0" stroke="#040404" stroke-opacity="1.00" stroke-width="0.3"><path d="
M 163.00 352.00 
C 164.68 347.38 175.89 342.08 169.00 338.00
C 166.89 342.33 155.64 347.67 163.00 352.00 Z"/>
</g>
<g fill="None" fill-opacity="0.0" stroke="#767676" stroke-opacity="1.00" stroke-width="0.3"><path d="
M 341.00 342.00 
C 340.15 340.58 338.85 339.48 338.00 338.00
C 335.86 339.04 340.35 341.12 341.00 342.00 Z"/>
</g>
<g fill="None" fill-opacity="0.0" stroke="#030303" stroke-opacity="1.00" stroke-width="0.3"><path d="
M 326.00 339.00 
C 319.25 341.57 333.10 357.19 336.00 350.00
C 332.04 347.07 329.52 342.58 326.00 339.00 Z"/>
</g>
<g fill="None" fill-opacity="0.0" stroke="#020202" stroke-opacity="1.00" stroke-width="0.3"><path d="
M 325.00 359.00 
C 330.72 355.93 321.28 343.25 316.00 346.00
C 318.89 349.26 319.80 353.88 314.00 354.00
C 313.24 350.52 310.67 349.50 308.00 352.00
C 309.71 358.71 323.92 369.96 317.00 357.00
C 320.30 354.77 323.16 355.20 325.00 359.00 Z"/>
</g>
<g fill="None" fill-opacity="0.0" stroke="#010101" stroke-opacity="1.00" stroke-width="0.3"><path d="
M 185.00 354.00 
C 185.57 347.12 174.66 342.45 170.31 349.31 C 165.95 356.16 173.39 362.17 179.00 364.00
C 188.49 359.65 174.62 348.96 178.00 358.00
C 173.36 358.95 171.33 352.62 175.33 350.33 C 179.33 348.05 181.06 355.11 185.00 354.00 Z"/>
</g>
<g fill="None" fill-opacity="0.0" stroke="#040404" stroke-opacity="1.00" stroke-width="0.3"><path d="
M 307.00 353.00 
C 302.95 355.87 296.11 356.66 294.00 361.00
C 297.79 361.51 301.30 361.21 302.23 365.77 C 303.16 370.34 305.85 371.44 309.00 369.00
C 307.31 365.65 305.70 362.36 304.00 359.00
C 306.46 357.07 308.53 356.67 307.00 353.00 Z"/>
</g>
<g fill="None" fill-opacity="0.0" stroke="#030303" stroke-opacity="1.00" stroke-width="0.3"><path d="
M 194.00 355.00 
C 188.76 352.21 179.51 367.35 187.00 369.00
C 188.73 364.19 192.27 359.79 194.00 355.00 Z"/>
</g>
<g fill="None" fill-opacity="0.0" stroke="#797979" stroke-opacity="1.00" stroke-width="0.3"><path d="
M 242.00 355.00 
C 241.04 354.83 239.57 354.10 238.00 354.00
C 239.00 354.18 240.40 354.91 242.00 355.00 Z"/>
</g>
<g fill="None" fill-opacity="0.0" stroke="#010101" stroke-opacity="1.00" stroke-width="0.3"><path d="
M 204.00 368.00 
C 201.07 365.38 203.09 357.23 197.00 358.00
C 195.79 362.82 192.94 367.11 192.00 372.00
C 196.46 374.70 197.22 369.26 198.00 366.00
C 200.05 368.58 200.39 372.66 201.00 376.00
C 207.59 376.26 208.01 366.74 210.00 362.00
C 205.96 360.83 204.64 365.02 204.00 368.00 Z"/>
</g>
<g fill="None" fill-opacity="0.0" stroke="#010101" stroke-opacity="1.00" stroke-width="0.3"><path d="
M 291.00 362.00 
C 281.52 359.31 275.68 374.12 285.33 377.67 C 294.98 381.22 300.03 364.57 291.00 362.00
M 290.00 366.00 
C 294.14 367.89 290.94 376.24 286.33 373.67 C 281.71 371.10 285.36 363.89 290.00 366.00 Z"/>
</g>
<g fill="None" fill-opacity="0.0" stroke="#010101" stroke-opacity="1.00" stroke-width="0.3"><path d="
M 222.00 366.00 
C 215.53 364.25 211.11 373.96 209.00 379.00
C 215.09 375.32 218.74 379.55 224.00 382.00
C 223.34 376.64 221.95 371.51 222.00 366.00
M 219.00 371.00 
C 220.69 377.23 213.25 372.95 219.00 371.00 Z"/>
</g>
<g fill="None" fill-opacity="0.0" stroke="#E4E4E4" stroke-opacity="1.00" stroke-width="0.3"><path d="
M 290.00 366.00 
C 285.36 363.89 281.71 371.10 286.33 373.67 C 290.94 376.24 294.14 367.89 290.00 366.00 Z"/>
</g>
<g fill="None" fill-opacity="0.0" stroke="#030303" stroke-opacity="1.00" stroke-width="0.3"><path d="
M 279.00 377.00 
C 268.16 383.62 274.90 364.14 266.00 368.00
C 267.15 372.98 268.19 377.97 269.00 383.00
C 272.27 380.70 280.40 383.18 279.00 377.00 Z"/>
</g>
<g fill="None" fill-opacity="0.0" stroke="#030303" stroke-opacity="1.00" stroke-width="0.3"><path d="
M 234.00 368.00 
C 226.15 367.12 229.18 378.05 228.00 383.00
C 232.09 382.05 238.88 386.77 239.00 380.00
C 230.73 382.56 232.61 372.68 234.00 368.00 Z"/>
</g>
<g fill="None" fill-opacity="0.0" stroke="#010101" stroke-opacity="1.00" stroke-width="0.3"><path d="
M 264.00 372.00 
C 258.84 364.52 248.55 371.01 250.08 378.92 C 251.60 386.84 267.25 385.11 262.00 378.00
C 259.35 381.51 252.66 380.19 254.08 375.08 C 255.51 369.97 261.13 374.16 264.00 372.00 Z"/>
</g>
<g fill="None" fill-opacity="0.0" stroke="#B9B9B9" stroke-opacity="1.00" stroke-width="0.3"><path d="
M 219.00 371.00 
C 213.25 372.95 220.69 377.23 219.00 371.00 Z"/>
</g>
<g fill="None" fill-opacity="0.0" stroke="#656565" stroke-opacity="1.00" stroke-width="0.3"><path d="
M 255.00 398.00 
C 251.67 398.00 248.33 398.00 245.00 398.00
C 248.08 398.30 251.86 398.30 255.00 398.00 Z"/>
</g>
<g fill="#FEFEFE" fill-opacity="1.00" stroke="None">
<path d="
M 0.00 500.00 
L 500.00 500.00
L 500.00 0.00
L 0.00 0.00
L 0.00 500.00
M 319.00 207.00 
C 317.14 207.18 297.20 209.80 305.00 202.00
C 307.60 199.40 317.19 201.00 321.00 201.00
C 326.00 201.00 331.00 201.00 336.00 201.00
C 302.93 134.99 197.04 134.92 164.00 201.00
C 174.33 201.00 184.67 201.00 195.00 201.00
C 196.56 202.07 196.55 205.93 195.00 207.00
C 190.93 209.81 182.14 205.73 177.00 207.00 C 171.86 208.27 164.63 206.43 159.00 207.00 C 153.37 207.57 146.88 206.76 141.00 207.00 C 135.12 207.24 129.05 206.92 123.00 207.00 C 116.95 207.08 110.12 207.00 104.00 207.00
C 101.47 207.24 88.73 210.36 87.00 207.00
C 86.71 206.43 86.71 202.57 87.00 202.00
C 88.88 198.36 99.77 202.72 103.00 201.00
C 108.88 196.45 108.54 183.07 113.92 176.92 C 119.29 170.77 122.10 161.24 128.25 155.25 C 134.40 149.26 138.27 141.87 145.25 136.25 C 152.23 130.63 158.11 125.62 165.70 120.70 C 173.29 115.78 180.38 111.80 189.08 108.08 C 197.77 104.35 206.36 101.52 216.07 99.07 C 225.79 96.62 238.32 96.24 249.00 96.00 C 259.68 95.76 272.27 96.82 282.02 98.98 C 291.78 101.14 300.67 103.73 309.23 107.77 C 317.79 111.81 325.77 114.47 333.23 119.77 C 340.69 125.07 346.86 129.44 353.70 135.30 C 360.53 141.17 365.38 147.34 370.92 154.08 C 376.46 160.83 381.32 167.85 385.30 175.70 C 389.29 183.54 394.43 192.12 396.00 201.00
C 401.67 201.00 407.33 201.00 413.00 201.00
C 414.15 210.92 401.50 206.31 394.00 207.00 C 386.50 207.69 376.95 206.68 369.00 207.00 C 361.05 207.32 352.13 206.83 344.00 207.00 C 335.87 207.17 327.18 206.87 319.00 207.00
M 231.00 210.00 
C 233.39 217.44 225.88 216.12 221.00 216.00
C 221.00 224.33 221.00 232.67 221.00 241.00
C 207.94 243.00 216.40 223.98 214.00 216.00
C 210.67 216.00 207.33 216.00 204.00 216.00
C 201.93 208.51 208.69 209.94 214.00 210.00 C 219.31 210.06 225.60 209.96 231.00 210.00
M 244.00 222.00 
C 246.91 224.04 253.74 220.47 257.00 222.00
C 257.00 218.00 257.00 214.00 257.00 210.00
C 265.94 207.36 264.02 215.93 264.00 222.00 C 263.98 228.07 264.01 234.87 264.00 241.00
C 254.16 244.24 258.42 233.68 256.00 229.00
C 253.92 227.54 246.64 229.24 244.00 229.00
C 244.00 231.55 245.25 239.71 243.00 241.00
C 242.40 241.34 237.60 241.34 237.00 241.00
C 234.57 239.61 235.86 228.93 236.00 226.00 C 236.14 223.07 234.39 211.50 237.00 210.00
C 237.60 209.66 242.40 209.66 243.00 210.00
C 245.98 211.71 242.84 219.20 244.00 222.00
M 294.00 210.00 
C 296.56 219.24 285.33 215.14 280.00 216.00
C 277.42 224.86 287.81 221.36 293.00 222.00
C 295.58 230.86 285.19 227.36 280.00 228.00
C 276.95 238.32 288.91 234.27 295.00 235.00
C 295.43 245.99 279.98 239.07 273.00 241.00
C 273.00 230.67 273.00 220.33 273.00 210.00
C 280.00 210.00 287.00 210.00 294.00 210.00
M 308.00 258.00 
C 308.92 259.38 307.30 262.47 308.00 264.00
C 303.33 264.00 298.67 264.00 294.00 264.00
C 294.00 266.00 294.00 268.00 294.00 270.00
C 296.94 272.03 303.71 268.48 307.00 270.00
C 309.90 279.70 298.11 273.94 294.00 277.00
C 293.14 278.50 294.65 281.37 294.00 283.00
C 297.16 285.18 304.46 281.36 308.00 283.00
C 309.72 294.09 293.71 287.01 287.00 289.00
C 283.97 286.88 286.44 277.94 286.00 274.00 C 285.56 270.06 285.62 262.23 286.00 258.00
C 287.92 256.00 306.44 255.66 308.00 258.00
M 178.00 277.00 
C 173.67 277.00 169.33 277.00 165.00 277.00
C 163.12 279.68 166.41 285.99 165.00 289.00
C 156.06 291.64 157.98 283.07 158.00 277.00 C 158.02 270.93 157.99 264.13 158.00 258.00
C 166.92 255.15 165.03 264.21 165.00 270.00
C 169.33 270.00 173.67 270.00 178.00 270.00
C 178.00 266.00 178.00 262.00 178.00 258.00
C 186.94 255.36 185.02 263.93 185.00 270.00 C 184.98 276.07 185.01 282.87 185.00 289.00
C 176.08 291.85 177.97 282.79 178.00 277.00
M 216.00 258.00 
C 218.51 267.59 206.49 262.94 201.00 264.00
C 198.44 273.24 209.67 269.14 215.00 270.00
C 217.56 279.24 206.33 275.14 201.00 276.00
C 197.95 286.32 209.91 282.27 216.00 283.00
C 217.53 294.27 200.95 286.89 194.00 289.00
C 194.00 278.67 194.00 268.33 194.00 258.00
C 201.33 258.00 208.67 258.00 216.00 258.00
M 238.00 276.00 
C 241.06 279.64 243.19 284.71 249.00 283.00
C 250.72 296.49 232.37 285.07 231.00 277.00
C 228.81 280.09 230.57 285.16 230.00 289.00
C 221.06 291.64 222.98 283.07 223.00 277.00 C 223.02 270.93 222.99 264.13 223.00 258.00
C 229.64 258.54 238.69 256.11 243.75 261.25 C 248.80 266.40 244.62 275.64 238.00 276.00
M 270.00 276.00 
C 273.06 279.64 275.19 284.71 281.00 283.00
C 282.72 296.49 264.37 285.07 263.00 277.00
C 260.81 280.09 262.57 285.16 262.00 289.00
C 253.06 291.64 254.98 283.07 255.00 277.00 C 255.02 270.93 254.99 264.13 255.00 258.00
C 261.64 258.54 270.69 256.11 275.75 261.25 C 280.80 266.40 276.62 275.64 270.00 276.00
M 335.00 276.00 
C 334.13 273.34 333.97 259.36 336.00 258.00
C 337.38 257.08 340.46 258.70 342.00 258.00
C 342.00 268.33 342.00 278.67 342.00 289.00
C 331.47 289.84 328.53 276.59 323.00 270.00
C 320.72 275.42 322.63 282.82 322.00 289.00
C 313.06 291.64 314.98 283.07 315.00 277.00 C 315.02 270.93 314.99 264.13 315.00 258.00
C 326.25 256.00 328.06 270.51 335.00 276.00
M 322.00 300.00 
C 320.32 298.80 320.80 296.24 322.00 295.00
C 323.91 291.30 335.36 294.96 340.00 294.00 C 344.64 293.04 353.40 294.33 359.00 294.00 C 364.60 293.67 373.13 294.00 379.00 294.00
C 382.73 293.64 387.59 293.00 392.00 293.00
C 396.95 293.00 402.07 292.62 407.00 293.00
C 411.15 293.32 414.29 293.53 413.00 299.00
C 399.69 294.13 393.68 303.97 390.69 313.69 C 387.71 323.42 382.12 329.15 377.25 337.25 C 372.37 345.35 367.10 350.78 360.75 357.75 C 354.40 364.73 348.14 369.15 340.77 374.77 C 333.40 380.39 326.42 384.71 317.78 388.78 C 309.13 392.84 300.73 396.44 290.98 398.98 C 281.22 401.51 269.82 403.75 259.00 404.00 C 248.18 404.25 234.10 403.96 223.98 402.02 C 213.85 400.09 203.80 398.02 194.78 394.22 C 185.75 390.43 177.72 387.12 169.77 382.23 C 161.82 377.34 155.72 372.14 148.75 366.25 C 141.78 360.36 135.85 354.91 130.25 347.75 C 124.65 340.60 119.68 333.74 115.23 325.77 C 110.78 317.80 106.61 308.81 104.00 300.00
C 98.33 300.00 92.67 300.00 87.00 300.00
C 85.63 290.45 96.83 294.55 104.00 294.00 C 111.17 293.45 120.43 294.29 128.00 294.00 C 135.57 293.71 144.33 294.22 152.00 294.00
C 156.39 293.58 161.93 293.00 167.00 293.00
C 170.67 293.00 174.33 293.00 178.00 293.00
C 180.56 302.24 169.33 298.14 164.00 299.00
C 196.76 364.47 302.03 365.40 335.00 300.00
C 330.67 300.00 326.33 300.00 322.00 300.00 Z"/>
</g>
<g fill="#000000" fill-opacity="1.00" stroke="None">
<path d="
M 103.00 201.00 
C 99.15 203.98 91.75 200.84 87.00 202.00
C 86.71 202.57 86.71 206.43 87.00 207.00
C 92.67 207.00 98.33 207.00 104.00 207.00
C 110.12 207.00 116.95 207.08 123.00 207.00 C 129.05 206.92 135.12 207.24 141.00 207.00 C 146.88 206.76 153.37 207.57 159.00 207.00 C 164.63 206.43 171.86 208.27 177.00 207.00 C 182.14 205.73 190.93 209.81 195.00 207.00
C 195.00 205.00 195.00 203.00 195.00 201.00
C 184.67 201.00 174.33 201.00 164.00 201.00
C 197.04 134.92 302.93 134.99 336.00 201.00
C 331.00 201.00 326.00 201.00 321.00 201.00
C 316.40 201.44 310.31 202.75 305.00 202.00
C 305.00 203.67 305.00 205.33 305.00 207.00
C 309.67 207.00 314.33 207.00 319.00 207.00
C 327.18 206.87 335.87 207.17 344.00 207.00 C 352.13 206.83 361.05 207.32 369.00 207.00 C 376.95 206.68 386.50 207.69 394.00 207.00 C 401.50 206.31 414.15 210.92 413.00 201.00
C 407.33 201.00 401.67 201.00 396.00 201.00
C 394.43 192.12 389.29 183.54 385.30 175.70 C 381.32 167.85 376.46 160.83 370.92 154.08 C 365.38 147.34 360.53 141.17 353.70 135.30 C 346.86 129.44 340.69 125.07 333.23 119.77 C 325.77 114.47 317.79 111.81 309.23 107.77 C 300.67 103.73 291.78 101.14 282.02 98.98 C 272.27 96.82 259.68 95.76 249.00 96.00 C 238.32 96.24 225.79 96.62 216.07 99.07 C 206.36 101.52 197.77 104.35 189.08 108.08 C 180.38 111.80 173.29 115.78 165.70 120.70 C 158.11 125.62 152.23 130.63 145.25 136.25 C 138.27 141.87 134.40 149.26 128.25 155.25 C 122.10 161.24 119.29 170.77 113.92 176.92 C 108.54 183.07 108.88 196.45 103.00 201.00
M 253.00 102.00 
C 313.40 102.00 371.12 143.60 390.00 201.00
C 377.53 201.92 363.29 199.78 351.00 201.00 C 338.71 202.22 338.14 189.33 330.75 182.25 C 323.35 175.18 318.65 169.41 310.25 163.75 C 301.86 158.08 294.23 154.32 284.32 150.68 C 274.42 147.04 261.25 144.70 250.00 145.00 C 238.75 145.30 226.29 146.80 216.32 150.32 C 206.35 153.84 198.88 157.94 190.30 163.30 C 181.73 168.67 177.37 175.01 169.75 181.75 C 162.13 188.50 162.12 201.67 150.00 201.00 C 137.88 200.33 122.43 201.50 110.00 201.00
C 128.72 144.34 186.23 101.81 246.00 102.00
C 248.19 101.79 250.87 101.79 253.00 102.00 Z"/>
</g>
<g fill="#676767" fill-opacity="1.00" stroke="None">
<path d="
M 246.00 102.00 
C 248.33 102.00 250.67 102.00 253.00 102.00
C 250.87 101.79 248.19 101.79 246.00 102.00 Z"/>
</g>
<g fill="#FAFAFA" fill-opacity="1.00" stroke="None">
<path d="
M 253.00 102.00 
C 250.67 102.00 248.33 102.00 246.00 102.00
C 186.23 101.81 128.72 144.34 110.00 201.00
C 122.43 201.50 137.88 200.33 150.00 201.00 C 162.12 201.67 162.13 188.50 169.75 181.75 C 177.37 175.01 181.73 168.67 190.30 163.30 C 198.88 157.94 206.35 153.84 216.32 150.32 C 226.29 146.80 238.75 145.30 250.00 145.00 C 261.25 144.70 274.42 147.04 284.32 150.68 C 294.23 154.32 301.86 158.08 310.25 163.75 C 318.65 169.41 323.35 175.18 330.75 182.25 C 338.14 189.33 338.71 202.22 351.00 201.00 C 363.29 199.78 377.53 201.92 390.00 201.00
C 371.12 143.60 313.40 102.00 253.00 102.00
M 229.00 126.00 
C 228.62 124.52 227.99 123.07 228.00 121.00
C 227.81 119.02 228.15 116.99 228.00 115.00
C 234.73 113.23 233.73 123.32 239.00 124.00
C 240.13 120.26 240.43 112.93 246.00 114.00
C 247.11 119.21 246.51 124.87 248.00 130.00
C 242.37 131.95 243.65 126.74 242.00 124.00
C 241.74 126.44 240.24 128.52 240.00 131.00
C 236.74 131.71 235.01 128.41 234.00 126.00
C 232.43 128.06 233.61 132.49 229.00 131.00
C 229.00 129.33 229.00 127.67 229.00 126.00
M 271.00 132.00 
C 270.25 135.84 276.72 132.06 276.00 136.00
C 268.17 139.29 255.25 126.95 264.25 118.25 C 273.25 109.55 286.24 129.27 271.00 132.00
M 216.00 118.00 
C 221.11 115.42 225.82 126.92 221.69 131.69 C 217.57 136.47 208.95 136.44 208.01 127.99 C 207.07 119.55 208.37 118.15 212.32 127.68 C 216.27 137.21 220.58 121.87 216.00 118.00
M 290.00 121.00 
C 287.76 123.64 285.02 135.06 290.70 133.64 C 296.37 132.23 291.85 119.13 300.00 124.00
C 298.35 130.99 294.48 140.10 286.31 136.69 C 278.13 133.28 283.10 118.11 290.00 121.00
M 201.00 140.00 
C 199.30 134.92 196.81 130.09 195.00 125.00
C 200.78 121.17 208.77 139.38 201.00 140.00
M 191.00 141.00 
C 190.92 140.92 190.00 141.66 190.00 142.00
C 189.94 148.22 186.23 147.19 182.00 145.00
C 184.57 153.93 178.36 150.08 175.08 141.92 C 171.79 133.77 180.59 137.50 186.00 142.00
C 182.72 137.25 186.07 126.03 189.77 131.23 C 193.47 136.43 198.29 140.40 193.00 144.00
C 192.70 142.75 191.17 142.29 191.00 141.00
M 314.00 131.00 
C 312.49 136.78 313.48 143.85 311.00 149.00
C 308.96 147.76 307.27 145.82 308.00 143.00
C 304.44 140.31 300.95 142.45 297.00 141.00
C 301.81 136.93 307.31 128.81 314.00 131.00
M 320.00 151.00 
C 330.61 157.21 318.10 157.13 314.00 151.00
C 316.85 146.54 321.14 142.82 323.00 138.00
C 331.36 139.99 321.72 146.96 320.00 151.00
M 169.00 145.00 
C 167.52 146.51 164.88 147.76 164.00 150.00
C 166.07 151.69 169.06 149.01 170.00 147.00
C 175.67 149.13 169.40 152.23 168.00 155.00
C 169.07 156.32 177.26 149.84 176.92 154.09 C 176.57 158.33 169.39 158.46 168.00 162.00
C 165.48 157.09 160.48 153.88 158.00 149.00
C 161.78 147.75 166.13 138.88 169.00 145.00
M 332.00 160.00 
C 330.68 161.34 326.18 165.01 326.00 160.00
C 325.90 157.11 338.61 144.89 340.00 152.00
C 337.04 154.21 334.10 157.02 332.00 160.00
M 344.00 155.00 
C 346.87 159.12 351.33 162.39 353.00 167.00
C 349.47 169.49 349.21 165.26 346.00 165.00
C 343.23 167.51 337.81 175.29 335.00 169.00
C 338.48 167.35 340.08 162.49 344.00 162.00
C 343.51 159.19 339.09 156.67 344.00 155.00
M 158.00 164.00 
C 161.12 164.60 162.66 160.82 166.00 162.00
C 166.49 167.23 159.80 169.15 156.00 167.00
C 163.53 178.61 149.28 170.24 145.00 165.00
C 145.93 157.69 159.92 152.82 158.00 164.00
M 356.00 169.00 
C 358.87 171.99 356.97 174.77 356.00 178.00
C 359.26 177.53 363.20 177.85 363.00 182.00
C 357.07 181.55 351.29 181.67 347.00 186.00
C 343.72 180.02 354.09 175.13 356.00 169.00
M 145.00 183.00 
C 148.44 183.01 149.46 186.42 148.00 189.00
C 143.05 187.15 138.90 183.25 134.00 181.00
C 134.39 167.44 154.90 170.78 145.00 183.00 Z"/>
</g>
<g fill="#010101" fill-opacity="1.00" stroke="None">
<path d="
M 228.00 121.00 
C 228.09 121.92 228.80 124.53 229.00 126.00
C 229.00 127.67 229.00 129.33 229.00 131.00
C 233.61 132.49 232.43 128.06 234.00 126.00
C 235.01 128.41 236.74 131.71 240.00 131.00
C 240.24 128.52 241.74 126.44 242.00 124.00
C 243.65 126.74 242.37 131.95 248.00 130.00
C 246.51 124.87 247.11 119.21 246.00 114.00
C 240.43 112.93 240.13 120.26 239.00 124.00
C 233.73 123.32 234.73 113.23 228.00 115.00
C 228.15 116.99 227.81 119.02 228.00 121.00 Z"/>
</g>
<g fill="#010101" fill-opacity="1.00" stroke="None">
<path d="
M 271.00 132.00 
C 286.24 129.27 273.25 109.55 264.25 118.25 C 255.25 126.95 268.17 139.29 276.00 136.00
C 276.72 132.06 270.25 135.84 271.00 132.00
M 272.00 120.00 
C 276.31 121.76 272.63 130.23 268.00 128.00 C 263.37 125.76 267.19 118.03 272.00 120.00 Z"/>
</g>
<g fill="#030303" fill-opacity="1.00" stroke="None">
<path d="
M 216.00 118.00 
C 220.58 121.87 216.27 137.21 212.32 127.68 C 208.37 118.15 207.07 119.55 208.01 127.99 C 208.95 136.44 217.57 136.47 221.69 131.69 C 225.82 126.92 221.11 115.42 216.00 118.00 Z"/>
</g>
<g fill="#EEEEEE" fill-opacity="1.00" stroke="None">
<path d="
M 272.00 120.00 
C 267.19 118.03 263.37 125.76 268.00 128.00 C 272.63 130.23 276.31 121.76 272.00 120.00 Z"/>
</g>
<g fill="#020202" fill-opacity="1.00" stroke="None">
<path d="
M 290.00 121.00 
C 283.10 118.11 278.13 133.28 286.31 136.69 C 294.48 140.10 298.35 130.99 300.00 124.00
C 291.85 119.13 296.37 132.23 290.70 133.64 C 285.02 135.06 287.76 123.64 290.00 121.00 Z"/>
</g>
<g fill="#777777" fill-opacity="1.00" stroke="None">
<path d="
M 229.00 126.00 
C 228.80 124.53 228.09 121.92 228.00 121.00
C 227.99 123.07 228.62 124.52 229.00 126.00 Z"/>
</g>
<g fill="#020202" fill-opacity="1.00" stroke="None">
<path d="
M 201.00 140.00 
C 208.77 139.38 200.78 121.17 195.00 125.00
C 196.81 130.09 199.30 134.92 201.00 140.00 Z"/>
</g>
<g fill="#010101" fill-opacity="1.00" stroke="None">
<path d="
M 190.00 142.00 
C 189.18 141.18 188.76 140.40 189.00 139.00
C 189.83 139.41 190.87 139.97 191.00 141.00
C 191.17 142.29 192.70 142.75 193.00 144.00
C 198.29 140.40 193.47 136.43 189.77 131.23 C 186.07 126.03 182.72 137.25 186.00 142.00
C 180.59 137.50 171.79 133.77 175.08 141.92 C 178.36 150.08 184.57 153.93 182.00 145.00
C 186.23 147.19 189.94 148.22 190.00 142.00 Z"/>
</g>
<g fill="#020202" fill-opacity="1.00" stroke="None">
<path d="
M 314.00 131.00 
C 307.31 128.81 301.81 136.93 297.00 141.00
C 300.95 142.45 304.44 140.31 308.00 143.00
C 307.27 145.82 308.96 147.76 311.00 149.00
C 313.48 143.85 312.49 136.78 314.00 131.00
M 309.00 136.00 
C 309.99 140.88 304.76 137.54 309.00 136.00 Z"/>
</g>
<g fill="#E6E6E6" fill-opacity="1.00" stroke="None">
<path d="
M 309.00 136.00 
C 304.76 137.54 309.99 140.88 309.00 136.00 Z"/>
</g>
<g fill="#020202" fill-opacity="1.00" stroke="None">
<path d="
M 320.00 151.00 
C 321.72 146.96 331.36 139.99 323.00 138.00
C 321.14 142.82 316.85 146.54 314.00 151.00
C 318.10 157.13 330.61 157.21 320.00 151.00 Z"/>
</g>
<g fill="#808080" fill-opacity="1.00" stroke="None">
<path d="
M 190.00 142.00 
C 190.00 141.66 190.92 140.92 191.00 141.00
C 190.87 139.97 189.83 139.41 189.00 139.00
C 188.76 140.40 189.18 141.18 190.00 142.00 Z"/>
</g>
<g fill="#020202" fill-opacity="1.00" stroke="None">
<path d="
M 169.00 145.00 
C 166.13 138.88 161.78 147.75 158.00 149.00
C 160.48 153.88 165.48 157.09 168.00 162.00
C 169.39 158.46 176.57 158.33 176.92 154.09 C 177.26 149.84 169.07 156.32 168.00 155.00
C 169.40 152.23 175.67 149.13 170.00 147.00
C 169.06 149.01 166.07 151.69 164.00 150.00
C 164.88 147.76 167.52 146.51 169.00 145.00 Z"/>
</g>
<g fill="#000000" fill-opacity="1.00" stroke="None">
<path d="
M 326.00 160.00 
C 326.60 163.19 330.76 160.91 332.00 160.00
C 334.10 157.02 337.04 154.21 340.00 152.00
C 338.61 144.89 325.90 157.11 326.00 160.00 Z"/>
</g>
<g fill="#010101" fill-opacity="1.00" stroke="None">
<path d="
M 344.00 155.00 
C 339.09 156.67 343.51 159.19 344.00 162.00
C 340.08 162.49 338.48 167.35 335.00 169.00
C 337.81 175.29 343.23 167.51 346.00 165.00
C 349.21 165.26 349.47 169.49 353.00 167.00
C 351.33 162.39 346.87 159.12 344.00 155.00 Z"/>
</g>
<g fill="#010101" fill-opacity="1.00" stroke="None">
<path d="
M 158.00 164.00 
C 159.92 152.82 145.93 157.69 145.00 165.00
C 149.28 170.24 163.53 178.61 156.00 167.00
C 159.80 169.15 166.49 167.23 166.00 162.00
C 162.66 160.82 161.12 164.60 158.00 164.00
M 154.00 161.00 
C 154.92 167.98 147.67 161.56 154.00 161.00 Z"/>
</g>
<g fill="#707070" fill-opacity="1.00" stroke="None">
<path d="
M 332.00 160.00 
C 330.76 160.91 326.60 163.19 326.00 160.00
C 326.18 165.01 330.68 161.34 332.00 160.00 Z"/>
</g>
<g fill="#F2F2F2" fill-opacity="1.00" stroke="None">
<path d="
M 154.00 161.00 
C 147.67 161.56 154.92 167.98 154.00 161.00 Z"/>
</g>
<g fill="#030303" fill-opacity="1.00" stroke="None">
<path d="
M 356.00 169.00 
C 354.09 175.13 343.72 180.02 347.00 186.00
C 351.29 181.67 357.07 181.55 363.00 182.00
C 363.20 177.85 359.26 177.53 356.00 178.00
C 356.97 174.77 358.87 171.99 356.00 169.00 Z"/>
</g>
<g fill="#010101" fill-opacity="1.00" stroke="None">
<path d="
M 145.00 183.00 
C 154.90 170.78 134.39 167.44 134.00 181.00
C 138.90 183.25 143.05 187.15 148.00 189.00
C 149.46 186.42 148.44 183.01 145.00 183.00
M 144.00 177.00 
C 144.26 177.46 142.16 179.21 143.00 180.00
C 141.01 180.56 138.16 179.03 140.00 177.00
C 140.84 175.32 143.80 174.14 144.00 177.00 Z"/>
</g>
<g fill="#707070" fill-opacity="1.00" stroke="None">
<path d="
M 140.00 177.00 
C 140.89 176.19 143.25 175.69 144.00 177.00
C 143.80 174.14 140.84 175.32 140.00 177.00 Z"/>
</g>
<g fill="#DFDFDF" fill-opacity="1.00" stroke="None">
<path d="
M 140.00 177.00 
C 138.16 179.03 141.01 180.56 143.00 180.00
C 142.16 179.21 144.26 177.46 144.00 177.00
C 143.25 175.69 140.89 176.19 140.00 177.00 Z"/>
</g>
<g fill="#717171" fill-opacity="1.00" stroke="None">
<path d="
M 87.00 202.00 
C 91.75 200.84 99.15 203.98 103.00 201.00
C 99.77 202.72 88.88 198.36 87.00 202.00 Z"/>
</g>
<g fill="#818181" fill-opacity="1.00" stroke="None">
<path d="
M 195.00 207.00 
C 196.55 205.93 196.56 202.07 195.00 201.00
C 195.00 203.00 195.00 205.00 195.00 207.00 Z"/>
</g>
<g fill="#6F6F6F" fill-opacity="1.00" stroke="None">
<path d="
M 305.00 202.00 
C 310.31 202.75 316.40 201.44 321.00 201.00
C 317.19 201.00 307.60 199.40 305.00 202.00 Z"/>
</g>
<g fill="#8C8C8C" fill-opacity="1.00" stroke="None">
<path d="
M 319.00 207.00 
C 314.33 207.00 309.67 207.00 305.00 207.00
C 305.00 205.33 305.00 203.67 305.00 202.00
C 297.20 209.80 317.14 207.18 319.00 207.00 Z"/>
</g>
<g fill="#8E8E8E" fill-opacity="1.00" stroke="None">
<path d="
M 104.00 207.00 
C 98.33 207.00 92.67 207.00 87.00 207.00
C 88.73 210.36 101.47 207.24 104.00 207.00 Z"/>
</g>
<g fill="#000000" fill-opacity="1.00" stroke="None">
<path d="
M 231.00 210.00 
C 225.60 209.96 219.31 210.06 214.00 210.00 C 208.69 209.94 201.93 208.51 204.00 216.00
C 207.33 216.00 210.67 216.00 214.00 216.00
C 216.40 223.98 207.94 243.00 221.00 241.00
C 221.00 232.67 221.00 224.33 221.00 216.00
C 225.88 216.12 233.39 217.44 231.00 210.00 Z"/>
</g>
<g fill="#737373" fill-opacity="1.00" stroke="None">
<path d="
M 237.00 241.00 
C 237.00 230.67 237.00 220.33 237.00 210.00
C 234.39 211.50 236.14 223.07 236.00 226.00 C 235.86 228.93 234.57 239.61 237.00 241.00 Z"/>
</g>
<g fill="#000000" fill-opacity="1.00" stroke="None">
<path d="
M 237.00 241.00 
C 237.60 241.34 242.40 241.34 243.00 241.00
C 244.06 237.28 241.14 230.75 244.00 228.00
C 247.02 227.73 253.99 226.99 256.00 229.00
C 258.42 233.68 254.16 244.24 264.00 241.00
C 264.01 234.87 263.98 228.07 264.00 222.00 C 264.02 215.93 265.94 207.36 257.00 210.00
C 257.00 214.00 257.00 218.00 257.00 222.00
C 253.74 220.47 246.91 224.04 244.00 222.00
C 241.08 219.96 244.12 213.05 243.00 210.00
C 242.40 209.66 237.60 209.66 237.00 210.00
C 237.00 220.33 237.00 230.67 237.00 241.00 Z"/>
</g>
<g fill="#5F5F5F" fill-opacity="1.00" stroke="None">
<path d="
M 244.00 222.00 
C 242.84 219.20 245.98 211.71 243.00 210.00
C 244.12 213.05 241.08 219.96 244.00 222.00 Z"/>
</g>
<g fill="#000000" fill-opacity="1.00" stroke="None">
<path d="
M 294.00 210.00 
C 287.00 210.00 280.00 210.00 273.00 210.00
C 273.00 220.33 273.00 230.67 273.00 241.00
C 279.98 239.07 295.43 245.99 295.00 235.00
C 288.91 234.27 276.95 238.32 280.00 228.00
C 285.19 227.36 295.58 230.86 293.00 222.00
C 287.81 221.36 277.42 224.86 280.00 216.00
C 285.33 215.14 296.56 219.24 294.00 210.00 Z"/>
</g>
<g fill="#5B5B5B" fill-opacity="1.00" stroke="None">
<path d="
M 243.00 241.00 
C 245.25 239.71 244.00 231.55 244.00 229.00
C 244.00 228.50 244.00 228.00 244.00 228.00
C 241.14 230.75 244.06 237.28 243.00 241.00 Z"/>
</g>
<g fill="#939393" fill-opacity="1.00" stroke="None">
<path d="
M 244.00 229.00 
C 246.64 229.24 253.92 227.54 256.00 229.00
C 253.99 226.99 247.02 227.73 244.00 228.00
C 244.00 228.00 244.00 228.50 244.00 229.00 Z"/>
</g>
<g fill="#C4C4C4" fill-opacity="1.00" stroke="None">
<path d="
M 286.00 258.00 
C 286.00 257.96 287.00 258.00 287.00 258.00
C 294.00 258.00 301.00 258.00 308.00 258.00
C 306.44 255.66 287.92 256.00 286.00 258.00 Z"/>
</g>
<g fill="#000000" fill-opacity="1.00" stroke="None">
<path d="
M 165.00 277.00 
C 166.31 275.12 176.73 275.18 178.00 277.00
C 177.97 282.79 176.08 291.85 185.00 289.00
C 185.01 282.87 184.98 276.07 185.00 270.00 C 185.02 263.93 186.94 255.36 178.00 258.00
C 178.00 262.00 178.00 266.00 178.00 270.00
C 173.67 270.00 169.33 270.00 165.00 270.00
C 165.03 264.21 166.92 255.15 158.00 258.00
C 157.99 264.13 158.02 270.93 158.00 277.00 C 157.98 283.07 156.06 291.64 165.00 289.00
C 166.41 285.99 163.12 279.68 165.00 277.00 Z"/>
</g>
<g fill="#000000" fill-opacity="1.00" stroke="None">
<path d="
M 216.00 258.00 
C 208.67 258.00 201.33 258.00 194.00 258.00
C 194.00 268.33 194.00 278.67 194.00 289.00
C 200.95 286.89 217.53 294.27 216.00 283.00
C 209.91 282.27 197.95 286.32 201.00 276.00
C 206.33 275.14 217.56 279.24 215.00 270.00
C 209.67 269.14 198.44 273.24 201.00 264.00
C 206.49 262.94 218.51 267.59 216.00 258.00 Z"/>
</g>
<g fill="#000000" fill-opacity="1.00" stroke="None">
<path d="
M 238.00 276.00 
C 244.62 275.64 248.80 266.40 243.75 261.25 C 238.69 256.11 229.64 258.54 223.00 258.00
C 222.99 264.13 223.02 270.93 223.00 277.00 C 222.98 283.07 221.06 291.64 230.00 289.00
C 230.57 285.16 228.81 280.09 231.00 277.00
C 232.37 285.07 250.72 296.49 249.00 283.00
C 243.19 284.71 241.06 279.64 238.00 276.00
M 230.00 271.00 
C 227.55 265.56 233.40 260.97 237.74 265.26 C 242.09 269.55 233.43 272.51 230.00 271.00 Z"/>
</g>
<g fill="#000000" fill-opacity="1.00" stroke="None">
<path d="
M 270.00 276.00 
C 276.62 275.64 280.80 266.40 275.75 261.25 C 270.69 256.11 261.64 258.54 255.00 258.00
C 254.99 264.13 255.02 270.93 255.00 277.00 C 254.98 283.07 253.06 291.64 262.00 289.00
C 262.57 285.16 260.81 280.09 263.00 277.00
C 264.37 285.07 282.72 296.49 281.00 283.00
C 275.19 284.71 273.06 279.64 270.00 276.00
M 262.00 271.00 
C 259.55 265.56 265.40 260.97 269.74 265.26 C 274.09 269.55 265.43 272.51 262.00 271.00 Z"/>
</g>
<g fill="#737373" fill-opacity="1.00" stroke="None">
<path d="
M 287.00 289.00 
C 286.31 278.73 287.92 268.25 287.00 258.00
C 287.00 258.00 286.00 257.96 286.00 258.00
C 285.62 262.23 285.56 270.06 286.00 274.00 C 286.44 277.94 283.97 286.88 287.00 289.00 Z"/>
</g>
<g fill="#000000" fill-opacity="1.00" stroke="None">
<path d="
M 287.00 289.00 
C 293.71 287.01 309.72 294.09 308.00 283.00
C 304.46 281.36 297.16 285.18 294.00 283.00
C 292.24 281.78 292.73 278.27 294.00 277.00
C 298.11 273.94 309.90 279.70 307.00 270.00
C 303.71 268.48 296.94 272.03 294.00 270.00
C 292.44 268.93 292.45 265.07 294.00 264.00
C 298.67 264.00 303.33 264.00 308.00 264.00
C 307.30 262.47 308.92 259.38 308.00 258.00
C 301.00 258.00 294.00 258.00 287.00 258.00
C 287.92 268.25 286.31 278.73 287.00 289.00 Z"/>
</g>
<g fill="#000000" fill-opacity="1.00" stroke="None">
<path d="
M 336.00 258.00 
C 335.54 261.47 337.06 276.19 335.00 276.00
C 328.06 270.51 326.25 256.00 315.00 258.00
C 314.99 264.13 315.02 270.93 315.00 277.00 C 314.98 283.07 313.06 291.64 322.00 289.00
C 322.63 282.82 320.72 275.42 323.00 270.00
C 328.53 276.59 331.47 289.84 342.00 289.00
C 342.00 278.67 342.00 268.33 342.00 258.00
C 340.46 258.70 337.38 257.08 336.00 258.00 Z"/>
</g>
<g fill="#6E6E6E" fill-opacity="1.00" stroke="None">
<path d="
M 335.00 276.00 
C 337.06 276.19 335.54 261.47 336.00 258.00
C 333.97 259.36 334.13 273.34 335.00 276.00 Z"/>
</g>
<g fill="#F7F7F7" fill-opacity="1.00" stroke="None">
<path d="
M 230.00 271.00 
C 233.43 272.51 242.09 269.55 237.74 265.26 C 233.40 260.97 227.55 265.56 230.00 271.00 Z"/>
</g>
<g fill="#F7F7F7" fill-opacity="1.00" stroke="None">
<path d="
M 262.00 271.00 
C 265.43 272.51 274.09 269.55 269.74 265.26 C 265.40 260.97 259.55 265.56 262.00 271.00 Z"/>
</g>
<g fill="#838383" fill-opacity="1.00" stroke="None">
<path d="
M 294.00 270.00 
C 294.00 268.00 294.00 266.00 294.00 264.00
C 292.45 265.07 292.44 268.93 294.00 270.00 Z"/>
</g>
<g fill="#929292" fill-opacity="1.00" stroke="None">
<path d="
M 165.00 277.00 
C 169.33 277.00 173.67 277.00 178.00 277.00
C 176.73 275.18 166.31 275.12 165.00 277.00 Z"/>
</g>
<g fill="#7E7E7E" fill-opacity="1.00" stroke="None">
<path d="
M 294.00 283.00 
C 294.65 281.37 293.14 278.50 294.00 277.00
C 292.73 278.27 292.24 281.78 294.00 283.00 Z"/>
</g>
<g fill="#747474" fill-opacity="1.00" stroke="None">
<path d="
M 152.00 294.00 
C 157.06 294.00 162.68 293.42 167.00 293.00
C 161.93 293.00 156.39 293.58 152.00 294.00 Z"/>
</g>
<g fill="#000000" fill-opacity="1.00" stroke="None">
<path d="
M 152.00 294.00 
C 144.33 294.22 135.57 293.71 128.00 294.00 C 120.43 294.29 111.17 293.45 104.00 294.00 C 96.83 294.55 85.63 290.45 87.00 300.00
C 92.67 300.00 98.33 300.00 104.00 300.00
C 106.61 308.81 110.78 317.80 115.23 325.77 C 119.68 333.74 124.65 340.60 130.25 347.75 C 135.85 354.91 141.78 360.36 148.75 366.25 C 155.72 372.14 161.82 377.34 169.77 382.23 C 177.72 387.12 185.75 390.43 194.78 394.22 C 203.80 398.02 213.85 400.09 223.98 402.02 C 234.10 403.96 248.18 404.25 259.00 404.00 C 269.82 403.75 281.22 401.51 290.98 398.98 C 300.73 396.44 309.13 392.84 317.78 388.78 C 326.42 384.71 333.40 380.39 340.77 374.77 C 348.14 369.15 354.40 364.73 360.75 357.75 C 367.10 350.78 372.37 345.35 377.25 337.25 C 382.12 329.15 387.71 323.42 390.69 313.69 C 393.68 303.97 399.69 294.13 413.00 299.00
C 414.29 293.53 411.15 293.32 407.00 293.00
C 402.83 293.09 396.90 294.00 392.00 294.00
C 387.67 294.00 383.33 294.00 379.00 294.00
C 373.13 294.00 364.60 293.67 359.00 294.00 C 353.40 294.33 344.64 293.04 340.00 294.00 C 335.36 294.96 323.91 291.30 322.00 295.00
C 321.32 296.32 322.51 298.60 322.00 300.00
C 326.33 300.00 330.67 300.00 335.00 300.00
C 302.03 365.40 196.76 364.47 164.00 299.00
C 169.33 298.14 180.56 302.24 178.00 293.00
C 174.33 293.00 170.67 293.00 167.00 293.00
C 162.68 293.42 157.06 294.00 152.00 294.00
M 157.00 300.00 
C 163.25 303.99 164.29 314.28 170.75 319.25 C 177.21 324.22 181.44 331.18 188.70 335.30 C 195.95 339.42 202.00 344.54 210.23 347.77 C 218.46 351.00 228.79 353.40 238.00 354.00
C 239.57 354.10 241.04 354.83 242.00 355.00
C 282.72 357.37 323.68 337.14 342.00 300.00
C 353.33 300.00 364.67 300.00 376.00 300.00
C 379.96 299.62 388.70 296.85 389.00 301.00
C 389.76 311.61 378.33 322.61 374.08 332.08 C 369.82 341.54 360.07 348.41 352.75 356.75 C 345.44 365.09 336.49 370.72 326.92 376.92 C 317.35 383.12 306.76 387.27 295.32 391.32 C 283.88 395.37 267.99 398.00 255.00 398.00
C 251.86 398.30 248.08 398.30 245.00 398.00
C 185.70 398.00 129.63 355.59 110.00 300.00
C 120.00 300.00 130.00 300.00 140.00 300.00
C 144.48 299.57 152.67 297.24 157.00 300.00 Z"/>
</g>
<g fill="#8B8B8B" fill-opacity="1.00" stroke="None">
<path d="
M 379.00 294.00 
C 383.33 294.00 387.67 294.00 392.00 294.00
C 391.96 294.00 392.00 293.00 392.00 293.00
C 387.59 293.00 382.73 293.64 379.00 294.00 Z"/>
</g>
<g fill="#646464" fill-opacity="1.00" stroke="None">
<path d="
M 392.00 294.00 
C 396.90 294.00 402.83 293.09 407.00 293.00
C 402.07 292.62 396.95 293.00 392.00 293.00
C 392.00 293.00 391.96 294.00 392.00 294.00 Z"/>
</g>
<g fill="#7F7F7F" fill-opacity="1.00" stroke="None">
<path d="
M 322.00 300.00 
C 322.51 298.60 321.32 296.32 322.00 295.00
C 320.80 296.24 320.32 298.80 322.00 300.00 Z"/>
</g>
<g fill="#6B6B6B" fill-opacity="1.00" stroke="None">
<path d="
M 140.00 300.00 
C 144.40 300.00 153.03 298.28 157.00 300.00
C 152.67 297.24 144.48 299.57 140.00 300.00 Z"/>
</g>
<g fill="#6C6C6C" fill-opacity="1.00" stroke="None">
<path d="
M 376.00 300.00 
C 378.76 300.00 387.54 298.66 389.00 301.00
C 388.70 296.85 379.96 299.62 376.00 300.00 Z"/>
</g>
<g fill="#F9F9F9" fill-opacity="1.00" stroke="None">
<path d="
M 245.00 398.00 
C 248.33 398.00 251.67 398.00 255.00 398.00
C 267.99 398.00 283.88 395.37 295.32 391.32 C 306.76 387.27 317.35 383.12 326.92 376.92 C 336.49 370.72 345.44 365.09 352.75 356.75 C 360.07 348.41 369.82 341.54 374.08 332.08 C 378.33 322.61 389.76 311.61 389.00 301.00
C 387.54 298.66 378.76 300.00 376.00 300.00
C 364.67 300.00 353.33 300.00 342.00 300.00
C 323.68 337.14 282.72 357.37 242.00 355.00
C 240.40 354.91 239.00 354.18 238.00 354.00
C 228.79 353.40 218.46 351.00 210.23 347.77 C 202.00 344.54 195.95 339.42 188.70 335.30 C 181.44 331.18 177.21 324.22 170.75 319.25 C 164.29 314.28 163.25 303.99 157.00 300.00
C 153.03 298.28 144.40 300.00 140.00 300.00
C 130.00 300.00 120.00 300.00 110.00 300.00
C 129.63 355.59 185.70 398.00 245.00 398.00
M 351.00 313.00 
C 352.62 317.41 345.17 318.13 347.33 322.67 C 349.49 327.22 355.90 324.41 355.00 320.00
C 349.75 324.19 350.52 318.17 353.00 315.00
C 356.16 315.13 358.11 318.09 361.00 319.00
C 358.35 324.35 353.92 332.82 346.77 328.23 C 339.62 323.64 343.09 312.92 351.00 313.00
M 149.00 314.00 
C 158.11 316.87 152.70 333.06 143.00 329.00 C 133.30 324.94 139.14 310.89 149.00 314.00
M 338.00 338.00 
C 338.85 339.48 340.15 340.58 341.00 342.00
C 342.25 344.10 342.93 345.37 339.00 346.00
C 336.41 342.27 332.23 340.10 329.00 337.00
C 330.78 332.43 336.24 334.42 340.00 334.00
C 337.81 331.50 333.87 327.89 339.00 326.00
C 341.87 329.64 345.36 333.23 349.00 336.00
C 347.02 341.16 341.79 337.81 338.00 338.00
M 159.00 327.00 
C 160.29 329.31 166.86 334.23 163.22 337.22 C 159.58 340.22 154.75 339.30 158.00 346.00
C 152.19 346.73 152.31 339.58 154.00 336.00
C 151.84 338.39 148.43 340.18 147.00 336.00
C 151.12 333.10 154.22 328.42 159.00 327.00
M 163.00 352.00 
C 155.64 347.67 166.89 342.33 169.00 338.00
C 175.89 342.08 164.68 347.38 163.00 352.00
M 326.00 339.00 
C 329.52 342.58 332.04 347.07 336.00 350.00
C 333.10 357.19 319.25 341.57 326.00 339.00
M 325.00 359.00 
C 323.16 355.20 320.30 354.77 317.00 357.00
C 323.92 369.96 309.71 358.71 308.00 352.00
C 310.67 349.50 313.24 350.52 314.00 354.00
C 319.80 353.88 318.89 349.26 316.00 346.00
C 321.28 343.25 330.72 355.93 325.00 359.00
M 185.00 354.00 
C 181.06 355.11 179.33 348.05 175.33 350.33 C 171.33 352.62 173.36 358.95 178.00 358.00
C 174.62 348.96 188.49 359.65 179.00 364.00
C 173.39 362.17 165.95 356.16 170.31 349.31 C 174.66 342.45 185.57 347.12 185.00 354.00
M 307.00 353.00 
C 308.53 356.67 306.46 357.07 304.00 359.00
C 305.70 362.36 307.31 365.65 309.00 369.00
C 305.85 371.44 303.16 370.34 302.23 365.77 C 301.30 361.21 297.79 361.51 294.00 361.00
C 296.11 356.66 302.95 355.87 307.00 353.00
M 194.00 355.00 
C 192.27 359.79 188.73 364.19 187.00 369.00
C 179.51 367.35 188.76 352.21 194.00 355.00
M 204.00 368.00 
C 204.64 365.02 205.96 360.83 210.00 362.00
C 208.01 366.74 207.59 376.26 201.00 376.00
C 200.39 372.66 200.05 368.58 198.00 366.00
C 197.22 369.26 196.46 374.70 192.00 372.00
C 192.94 367.11 195.79 362.82 197.00 358.00
C 203.09 357.23 201.07 365.38 204.00 368.00
M 291.00 362.00 
C 300.03 364.57 294.98 381.22 285.33 377.67 C 275.68 374.12 281.52 359.31 291.00 362.00
M 222.00 366.00 
C 221.95 371.51 223.34 376.64 224.00 382.00
C 218.74 379.55 215.09 375.32 209.00 379.00
C 211.11 373.96 215.53 364.25 222.00 366.00
M 279.00 377.00 
C 280.40 383.18 272.27 380.70 269.00 383.00
C 268.19 377.97 267.15 372.98 266.00 368.00
C 274.90 364.14 268.16 383.62 279.00 377.00
M 234.00 368.00 
C 232.61 372.68 230.73 382.56 239.00 380.00
C 238.88 386.77 232.09 382.05 228.00 383.00
C 229.18 378.05 226.15 367.12 234.00 368.00
M 264.00 372.00 
C 261.13 374.16 255.51 369.97 254.08 375.08 C 252.66 380.19 259.35 381.51 262.00 378.00
C 267.25 385.11 251.60 386.84 250.08 378.92 C 248.55 371.01 258.84 364.52 264.00 372.00 Z"/>
</g>
<g fill="#020202" fill-opacity="1.00" stroke="None">
<path d="
M 351.00 313.00 
C 343.09 312.92 339.62 323.64 346.77 328.23 C 353.92 332.82 358.35 324.35 361.00 319.00
C 358.11 318.09 356.16 315.13 353.00 315.00
C 350.52 318.17 349.75 324.19 355.00 320.00
C 355.90 324.41 349.49 327.22 347.33 322.67 C 345.17 318.13 352.62 317.41 351.00 313.00 Z"/>
</g>
<g fill="#010101" fill-opacity="1.00" stroke="None">
<path d="
M 149.00 314.00 
C 139.14 310.89 133.30 324.94 143.00 329.00 C 152.70 333.06 158.11 316.87 149.00 314.00
M 148.00 318.00 
C 152.34 319.78 148.45 327.16 144.00 325.00 C 139.55 322.84 143.59 316.20 148.00 318.00 Z"/>
</g>
<g fill="#F1F1F1" fill-opacity="1.00" stroke="None">
<path d="
M 148.00 318.00 
C 143.59 316.20 139.55 322.84 144.00 325.00 C 148.45 327.16 152.34 319.78 148.00 318.00 Z"/>
</g>
<g fill="#010101" fill-opacity="1.00" stroke="None">
<path d="
M 341.00 342.00 
C 340.35 341.12 335.86 339.04 338.00 338.00
C 341.79 337.81 347.02 341.16 349.00 336.00
C 345.36 333.23 341.87 329.64 339.00 326.00
C 333.87 327.89 337.81 331.50 340.00 334.00
C 336.24 334.42 330.78 332.43 329.00 337.00
C 332.23 340.10 336.41 342.27 339.00 346.00
C 342.93 345.37 342.25 344.10 341.00 342.00 Z"/>
</g>
<g fill="#010101" fill-opacity="1.00" stroke="None">
<path d="
M 159.00 327.00 
C 154.22 328.42 151.12 333.10 147.00 336.00
C 148.43 340.18 151.84 338.39 154.00 336.00
C 152.31 339.58 152.19 346.73 158.00 346.00
C 154.75 339.30 159.58 340.22 163.22 337.22 C 166.86 334.23 160.29 329.31 159.00 327.00
M 159.00 336.00 
C 152.23 333.12 162.33 330.18 159.00 336.00 Z"/>
</g>
<g fill="#D4D4D4" fill-opacity="1.00" stroke="None">
<path d="
M 159.00 336.00 
C 162.33 330.18 152.23 333.12 159.00 336.00 Z"/>
</g>
<g fill="#040404" fill-opacity="1.00" stroke="None">
<path d="
M 163.00 352.00 
C 164.68 347.38 175.89 342.08 169.00 338.00
C 166.89 342.33 155.64 347.67 163.00 352.00 Z"/>
</g>
<g fill="#767676" fill-opacity="1.00" stroke="None">
<path d="
M 341.00 342.00 
C 340.15 340.58 338.85 339.48 338.00 338.00
C 335.86 339.04 340.35 341.12 341.00 342.00 Z"/>
</g>
<g fill="#030303" fill-opacity="1.00" stroke="None">
<path d="
M 326.00 339.00 
C 319.25 341.57 333.10 357.19 336.00 350.00
C 332.04 347.07 329.52 342.58 326.00 339.00 Z"/>
</g>
<g fill="#020202" fill-opacity="1.00" stroke="None">
<path d="
M 325.00 359.00 
C 330.72 355.93 321.28 343.25 316.00 346.00
C 318.89 349.26 319.80 353.88 314.00 354.00
C 313.24 350.52 310.67 349.50 308.00 352.00
C 309.71 358.71 323.92 369.96 317.00 357.00
C 320.30 354.77 323.16 355.20 325.00 359.00 Z"/>
</g>
<g fill="#010101" fill-opacity="1.00" stroke="None">
<path d="
M 185.00 354.00 
C 185.57 347.12 174.66 342.45 170.31 349.31 C 165.95 356.16 173.39 362.17 179.00 364.00
C 188.49 359.65 174.62 348.96 178.00 358.00
C 173.36 358.95 171.33 352.62 175.33 350.33 C 179.33 348.05 181.06 355.11 185.00 354.00 Z"/>
</g>
<g fill="#040404" fill-opacity="1.00" stroke="None">
<path d="
M 307.00 353.00 
C 302.95 355.87 296.11 356.66 294.00 361.00
C 297.79 361.51 301.30 361.21 302.23 365.77 C 303.16 370.34 305.85 371.44 309.00 369.00
C 307.31 365.65 305.70 362.36 304.00 359.00
C 306.46 357.07 308.53 356.67 307.00 353.00 Z"/>
</g>
<g fill="#030303" fill-opacity="1.00" stroke="None">
<path d="
M 194.00 355.00 
C 188.76 352.21 179.51 367.35 187.00 369.00
C 188.73 364.19 192.27 359.79 194.00 355.00 Z"/>
</g>
<g fill="#797979" fill-opacity="1.00" stroke="None">
<path d="
M 242.00 355.00 
C 241.04 354.83 239.57 354.10 238.00 354.00
C 239.00 354.18 240.40 354.91 242.00 355.00 Z"/>
</g>
<g fill="#010101" fill-opacity="1.00" stroke="None">
<path d="
M 204.00 368.00 
C 201.07 365.38 203.09 357.23 197.00 358.00
C 195.79 362.82 192.94 367.11 192.00 372.00
C 196.46 374.70 197.22 369.26 198.00 366.00
C 200.05 368.58 200.39 372.66 201.00 376.00
C 207.59 376.26 208.01 366.74 210.00 362.00
C 205.96 360.83 204.64 365.02 204.00 368.00 Z"/>
</g>
<g fill="#010101" fill-opacity="1.00" stroke="None">
<path d="
M 291.00 362.00 
C 281.52 359.31 275.68 374.12 285.33 377.67 C 294.98 381.22 300.03 364.57 291.00 362.00
M 290.00 366.00 
C 294.14 367.89 290.94 376.24 286.33 373.67 C 281.71 371.10 285.36 363.89 290.00 366.00 Z"/>
</g>
<g fill="#010101" fill-opacity="1.00" stroke="None">
<path d="
M 222.00 366.00 
C 215.53 364.25 211.11 373.96 209.00 379.00
C 215.09 375.32 218.74 379.55 224.00 382.00
C 223.34 376.64 221.95 371.51 222.00 366.00
M 219.00 371.00 
C 220.69 377.23 213.25 372.95 219.00 371.00 Z"/>
</g>
<g fill="#E4E4E4" fill-opacity="1.00" stroke="None">
<path d="
M 290.00 366.00 
C 285.36 363.89 281.71 371.10 286.33 373.67 C 290.94 376.24 294.14 367.89 290.00 366.00 Z"/>
</g>
<g fill="#030303" fill-opacity="1.00" stroke="None">
<path d="
M 279.00 377.00 
C 268.16 383.62 274.90 364.14 266.00 368.00
C 267.15 372.98 268.19 377.97 269.00 383.00
C 272.27 380.70 280.40 383.18 279.00 377.00 Z"/>
</g>
<g fill="#030303" fill-opacity="1.00" stroke="None">
<path d="
M 234.00 368.00 
C 226.15 367.12 229.18 378.05 228.00 383.00
C 232.09 382.05 238.88 386.77 239.00 380.00
C 230.73 382.56 232.61 372.68 234.00 368.00 Z"/>
</g>
<g fill="#010101" fill-opacity="1.00" stroke="None">
<path d="
M 264.00 372.00 
C 258.84 364.52 248.55 371.01 250.08 378.92 C 251.60 386.84 267.25 385.11 262.00 378.00
C 259.35 381.51 252.66 380.19 254.08 375.08 C 255.51 369.97 261.13 374.16 264.00 372.00 Z"/>
</g>
<g fill="#B9B9B9" fill-opacity="1.00" stroke="None">
<path d="
M 219.00 371.00 
C 213.25 372.95 220.69 377.23 219.00 371.00 Z"/>
</g>
<g fill="#656565" fill-opacity="1.00" stroke="None">
<path d="
M 255.00 398.00 
C 251.67 398.00 248.33 398.00 245.00 398.00
C 248.08 398.30 251.86 398.30 255.00 398.00 Z"/>
</g>
</svg>